ISO-10303-21;
HEADER;
/* Generated by software containing ST-Developer
 * from STEP Tools, Inc. (www.steptools.com) 
 */

FILE_DESCRIPTION(
/* description */ (''),
/* implementation_level */ '2;1');

FILE_NAME(
/* name */ 'LEG DESIGN UPDATED.step',
/* time_stamp */ '2026-05-26T23:19:07+05:30',
/* author */ (''),
/* organization */ (''),
/* preprocessor_version */ 'ST-DEVELOPER v20.1',
/* originating_system */ 'Autodesk Translation Framework v15.8.0.0',
/* authorisation */ '');

FILE_SCHEMA (('AUTOMOTIVE_DESIGN { 1 0 10303 214 3 1 1 }'));
ENDSEC;

DATA;
#10=MECHANICAL_DESIGN_GEOMETRIC_PRESENTATION_REPRESENTATION('',(#13),#558);
#11=SHAPE_REPRESENTATION_RELATIONSHIP('SRR','None',#565,#12);
#12=ADVANCED_BREP_SHAPE_REPRESENTATION('',(#14),#557);
#13=STYLED_ITEM('',(#574),#14);
#14=MANIFOLD_SOLID_BREP('Body2',#334);
#15=CYLINDRICAL_SURFACE('',#353,2.);
#16=CYLINDRICAL_SURFACE('',#362,1.15);
#17=CYLINDRICAL_SURFACE('',#364,20.);
#18=CYLINDRICAL_SURFACE('',#369,2.);
#19=FACE_BOUND('',#39,.T.);
#20=FACE_BOUND('',#52,.T.);
#21=FACE_OUTER_BOUND('',#38,.T.);
#22=FACE_OUTER_BOUND('',#40,.T.);
#23=FACE_OUTER_BOUND('',#41,.T.);
#24=FACE_OUTER_BOUND('',#42,.T.);
#25=FACE_OUTER_BOUND('',#43,.T.);
#26=FACE_OUTER_BOUND('',#44,.T.);
#27=FACE_OUTER_BOUND('',#45,.T.);
#28=FACE_OUTER_BOUND('',#46,.T.);
#29=FACE_OUTER_BOUND('',#47,.T.);
#30=FACE_OUTER_BOUND('',#48,.T.);
#31=FACE_OUTER_BOUND('',#49,.T.);
#32=FACE_OUTER_BOUND('',#50,.T.);
#33=FACE_OUTER_BOUND('',#51,.T.);
#34=FACE_OUTER_BOUND('',#53,.T.);
#35=FACE_OUTER_BOUND('',#54,.T.);
#36=FACE_OUTER_BOUND('',#55,.T.);
#37=FACE_OUTER_BOUND('',#56,.T.);
#38=EDGE_LOOP('',(#214,#215,#216,#217,#218,#219,#220,#221,#222,#223,#224,
#225,#226,#227));
#39=EDGE_LOOP('',(#228));
#40=EDGE_LOOP('',(#229,#230,#231,#232));
#41=EDGE_LOOP('',(#233,#234,#235,#236));
#42=EDGE_LOOP('',(#237,#238,#239,#240));
#43=EDGE_LOOP('',(#241,#242,#243,#244));
#44=EDGE_LOOP('',(#245,#246,#247,#248));
#45=EDGE_LOOP('',(#249,#250,#251,#252));
#46=EDGE_LOOP('',(#253,#254,#255,#256));
#47=EDGE_LOOP('',(#257,#258,#259,#260));
#48=EDGE_LOOP('',(#261,#262,#263,#264));
#49=EDGE_LOOP('',(#265,#266,#267,#268));
#50=EDGE_LOOP('',(#269,#270,#271,#272));
#51=EDGE_LOOP('',(#273,#274,#275,#276,#277,#278,#279,#280,#281,#282,#283,
#284,#285,#286));
#52=EDGE_LOOP('',(#287));
#53=EDGE_LOOP('',(#288,#289,#290,#291));
#54=EDGE_LOOP('',(#292,#293,#294,#295));
#55=EDGE_LOOP('',(#296,#297,#298,#299));
#56=EDGE_LOOP('',(#300,#301,#302,#303));
#57=CIRCLE('',#349,2.);
#58=CIRCLE('',#350,2.);
#59=CIRCLE('',#351,20.);
#60=CIRCLE('',#352,1.15);
#61=CIRCLE('',#354,2.);
#62=CIRCLE('',#363,1.15);
#63=CIRCLE('',#365,20.);
#64=CIRCLE('',#368,2.);
#65=LINE('',#466,#102);
#66=LINE('',#468,#103);
#67=LINE('',#470,#104);
#68=LINE('',#472,#105);
#69=LINE('',#474,#106);
#70=LINE('',#476,#107);
#71=LINE('',#480,#108);
#72=LINE('',#484,#109);
#73=LINE('',#488,#110);
#74=LINE('',#490,#111);
#75=LINE('',#491,#112);
#76=LINE('',#496,#113);
#77=LINE('',#499,#114);
#78=LINE('',#502,#115);
#79=LINE('',#503,#116);
#80=LINE('',#506,#117);
#81=LINE('',#507,#118);
#82=LINE('',#510,#119);
#83=LINE('',#511,#120);
#84=LINE('',#514,#121);
#85=LINE('',#515,#122);
#86=LINE('',#518,#123);
#87=LINE('',#519,#124);
#88=LINE('',#522,#125);
#89=LINE('',#523,#126);
#90=LINE('',#526,#127);
#91=LINE('',#527,#128);
#92=LINE('',#531,#129);
#93=LINE('',#534,#130);
#94=LINE('',#537,#131);
#95=LINE('',#540,#132);
#96=LINE('',#541,#133);
#97=LINE('',#543,#134);
#98=LINE('',#545,#135);
#99=LINE('',#548,#136);
#100=LINE('',#550,#137);
#101=LINE('',#551,#138);
#102=VECTOR('',#377,10.);
#103=VECTOR('',#378,10.);
#104=VECTOR('',#379,10.);
#105=VECTOR('',#380,10.);
#106=VECTOR('',#381,10.);
#107=VECTOR('',#382,10.);
#108=VECTOR('',#385,10.);
#109=VECTOR('',#388,10.);
#110=VECTOR('',#391,10.);
#111=VECTOR('',#392,10.);
#112=VECTOR('',#393,10.);
#113=VECTOR('',#398,10.);
#114=VECTOR('',#401,10.);
#115=VECTOR('',#404,10.);
#116=VECTOR('',#405,10.);
#117=VECTOR('',#408,10.);
#118=VECTOR('',#409,10.);
#119=VECTOR('',#412,10.);
#120=VECTOR('',#413,10.);
#121=VECTOR('',#416,10.);
#122=VECTOR('',#417,10.);
#123=VECTOR('',#420,10.);
#124=VECTOR('',#421,10.);
#125=VECTOR('',#424,10.);
#126=VECTOR('',#425,10.);
#127=VECTOR('',#428,10.);
#128=VECTOR('',#429,10.);
#129=VECTOR('',#434,1.15);
#130=VECTOR('',#437,10.);
#131=VECTOR('',#440,10.);
#132=VECTOR('',#443,10.);
#133=VECTOR('',#444,10.);
#134=VECTOR('',#447,10.);
#135=VECTOR('',#448,10.);
#136=VECTOR('',#451,10.);
#137=VECTOR('',#454,10.);
#138=VECTOR('',#455,10.);
#139=VERTEX_POINT('',#464);
#140=VERTEX_POINT('',#465);
#141=VERTEX_POINT('',#467);
#142=VERTEX_POINT('',#469);
#143=VERTEX_POINT('',#471);
#144=VERTEX_POINT('',#473);
#145=VERTEX_POINT('',#475);
#146=VERTEX_POINT('',#477);
#147=VERTEX_POINT('',#479);
#148=VERTEX_POINT('',#481);
#149=VERTEX_POINT('',#483);
#150=VERTEX_POINT('',#485);
#151=VERTEX_POINT('',#487);
#152=VERTEX_POINT('',#489);
#153=VERTEX_POINT('',#492);
#154=VERTEX_POINT('',#495);
#155=VERTEX_POINT('',#497);
#156=VERTEX_POINT('',#501);
#157=VERTEX_POINT('',#505);
#158=VERTEX_POINT('',#509);
#159=VERTEX_POINT('',#513);
#160=VERTEX_POINT('',#517);
#161=VERTEX_POINT('',#521);
#162=VERTEX_POINT('',#525);
#163=VERTEX_POINT('',#529);
#164=VERTEX_POINT('',#533);
#165=VERTEX_POINT('',#535);
#166=VERTEX_POINT('',#539);
#167=VERTEX_POINT('',#544);
#168=VERTEX_POINT('',#546);
#169=EDGE_CURVE('',#139,#140,#65,.T.);
#170=EDGE_CURVE('',#141,#139,#66,.T.);
#171=EDGE_CURVE('',#142,#141,#67,.T.);
#172=EDGE_CURVE('',#143,#142,#68,.T.);
#173=EDGE_CURVE('',#144,#143,#69,.T.);
#174=EDGE_CURVE('',#145,#144,#70,.T.);
#175=EDGE_CURVE('',#146,#145,#57,.T.);
#176=EDGE_CURVE('',#147,#146,#71,.T.);
#177=EDGE_CURVE('',#148,#147,#58,.T.);
#178=EDGE_CURVE('',#149,#148,#72,.T.);
#179=EDGE_CURVE('',#150,#149,#59,.T.);
#180=EDGE_CURVE('',#151,#150,#73,.T.);
#181=EDGE_CURVE('',#152,#151,#74,.T.);
#182=EDGE_CURVE('',#140,#152,#75,.T.);
#183=EDGE_CURVE('',#153,#153,#60,.T.);
#184=EDGE_CURVE('',#145,#154,#76,.T.);
#185=EDGE_CURVE('',#154,#155,#61,.T.);
#186=EDGE_CURVE('',#155,#146,#77,.T.);
#187=EDGE_CURVE('',#144,#156,#78,.T.);
#188=EDGE_CURVE('',#154,#156,#79,.T.);
#189=EDGE_CURVE('',#143,#157,#80,.T.);
#190=EDGE_CURVE('',#156,#157,#81,.T.);
#191=EDGE_CURVE('',#142,#158,#82,.T.);
#192=EDGE_CURVE('',#157,#158,#83,.T.);
#193=EDGE_CURVE('',#141,#159,#84,.T.);
#194=EDGE_CURVE('',#158,#159,#85,.T.);
#195=EDGE_CURVE('',#139,#160,#86,.T.);
#196=EDGE_CURVE('',#159,#160,#87,.T.);
#197=EDGE_CURVE('',#161,#140,#88,.T.);
#198=EDGE_CURVE('',#160,#161,#89,.T.);
#199=EDGE_CURVE('',#162,#152,#90,.T.);
#200=EDGE_CURVE('',#161,#162,#91,.T.);
#201=EDGE_CURVE('',#163,#163,#62,.T.);
#202=EDGE_CURVE('',#163,#153,#92,.T.);
#203=EDGE_CURVE('',#149,#164,#93,.T.);
#204=EDGE_CURVE('',#164,#165,#63,.T.);
#205=EDGE_CURVE('',#165,#150,#94,.T.);
#206=EDGE_CURVE('',#165,#166,#95,.T.);
#207=EDGE_CURVE('',#166,#151,#96,.T.);
#208=EDGE_CURVE('',#166,#162,#97,.T.);
#209=EDGE_CURVE('',#167,#164,#98,.T.);
#210=EDGE_CURVE('',#168,#167,#64,.T.);
#211=EDGE_CURVE('',#168,#155,#99,.T.);
#212=EDGE_CURVE('',#147,#168,#100,.T.);
#213=EDGE_CURVE('',#167,#148,#101,.T.);
#214=ORIENTED_EDGE('',*,*,#169,.F.);
#215=ORIENTED_EDGE('',*,*,#170,.F.);
#216=ORIENTED_EDGE('',*,*,#171,.F.);
#217=ORIENTED_EDGE('',*,*,#172,.F.);
#218=ORIENTED_EDGE('',*,*,#173,.F.);
#219=ORIENTED_EDGE('',*,*,#174,.F.);
#220=ORIENTED_EDGE('',*,*,#175,.F.);
#221=ORIENTED_EDGE('',*,*,#176,.F.);
#222=ORIENTED_EDGE('',*,*,#177,.F.);
#223=ORIENTED_EDGE('',*,*,#178,.F.);
#224=ORIENTED_EDGE('',*,*,#179,.F.);
#225=ORIENTED_EDGE('',*,*,#180,.F.);
#226=ORIENTED_EDGE('',*,*,#181,.F.);
#227=ORIENTED_EDGE('',*,*,#182,.F.);
#228=ORIENTED_EDGE('',*,*,#183,.F.);
#229=ORIENTED_EDGE('',*,*,#175,.T.);
#230=ORIENTED_EDGE('',*,*,#184,.T.);
#231=ORIENTED_EDGE('',*,*,#185,.T.);
#232=ORIENTED_EDGE('',*,*,#186,.T.);
#233=ORIENTED_EDGE('',*,*,#174,.T.);
#234=ORIENTED_EDGE('',*,*,#187,.T.);
#235=ORIENTED_EDGE('',*,*,#188,.F.);
#236=ORIENTED_EDGE('',*,*,#184,.F.);
#237=ORIENTED_EDGE('',*,*,#173,.T.);
#238=ORIENTED_EDGE('',*,*,#189,.T.);
#239=ORIENTED_EDGE('',*,*,#190,.F.);
#240=ORIENTED_EDGE('',*,*,#187,.F.);
#241=ORIENTED_EDGE('',*,*,#172,.T.);
#242=ORIENTED_EDGE('',*,*,#191,.T.);
#243=ORIENTED_EDGE('',*,*,#192,.F.);
#244=ORIENTED_EDGE('',*,*,#189,.F.);
#245=ORIENTED_EDGE('',*,*,#171,.T.);
#246=ORIENTED_EDGE('',*,*,#193,.T.);
#247=ORIENTED_EDGE('',*,*,#194,.F.);
#248=ORIENTED_EDGE('',*,*,#191,.F.);
#249=ORIENTED_EDGE('',*,*,#170,.T.);
#250=ORIENTED_EDGE('',*,*,#195,.T.);
#251=ORIENTED_EDGE('',*,*,#196,.F.);
#252=ORIENTED_EDGE('',*,*,#193,.F.);
#253=ORIENTED_EDGE('',*,*,#169,.T.);
#254=ORIENTED_EDGE('',*,*,#197,.F.);
#255=ORIENTED_EDGE('',*,*,#198,.F.);
#256=ORIENTED_EDGE('',*,*,#195,.F.);
#257=ORIENTED_EDGE('',*,*,#182,.T.);
#258=ORIENTED_EDGE('',*,*,#199,.F.);
#259=ORIENTED_EDGE('',*,*,#200,.F.);
#260=ORIENTED_EDGE('',*,*,#197,.T.);
#261=ORIENTED_EDGE('',*,*,#201,.F.);
#262=ORIENTED_EDGE('',*,*,#202,.T.);
#263=ORIENTED_EDGE('',*,*,#183,.T.);
#264=ORIENTED_EDGE('',*,*,#202,.F.);
#265=ORIENTED_EDGE('',*,*,#179,.T.);
#266=ORIENTED_EDGE('',*,*,#203,.T.);
#267=ORIENTED_EDGE('',*,*,#204,.T.);
#268=ORIENTED_EDGE('',*,*,#205,.T.);
#269=ORIENTED_EDGE('',*,*,#180,.T.);
#270=ORIENTED_EDGE('',*,*,#205,.F.);
#271=ORIENTED_EDGE('',*,*,#206,.T.);
#272=ORIENTED_EDGE('',*,*,#207,.T.);
#273=ORIENTED_EDGE('',*,*,#190,.T.);
#274=ORIENTED_EDGE('',*,*,#192,.T.);
#275=ORIENTED_EDGE('',*,*,#194,.T.);
#276=ORIENTED_EDGE('',*,*,#196,.T.);
#277=ORIENTED_EDGE('',*,*,#198,.T.);
#278=ORIENTED_EDGE('',*,*,#200,.T.);
#279=ORIENTED_EDGE('',*,*,#208,.F.);
#280=ORIENTED_EDGE('',*,*,#206,.F.);
#281=ORIENTED_EDGE('',*,*,#204,.F.);
#282=ORIENTED_EDGE('',*,*,#209,.F.);
#283=ORIENTED_EDGE('',*,*,#210,.F.);
#284=ORIENTED_EDGE('',*,*,#211,.T.);
#285=ORIENTED_EDGE('',*,*,#185,.F.);
#286=ORIENTED_EDGE('',*,*,#188,.T.);
#287=ORIENTED_EDGE('',*,*,#201,.T.);
#288=ORIENTED_EDGE('',*,*,#177,.T.);
#289=ORIENTED_EDGE('',*,*,#212,.T.);
#290=ORIENTED_EDGE('',*,*,#210,.T.);
#291=ORIENTED_EDGE('',*,*,#213,.T.);
#292=ORIENTED_EDGE('',*,*,#176,.T.);
#293=ORIENTED_EDGE('',*,*,#186,.F.);
#294=ORIENTED_EDGE('',*,*,#211,.F.);
#295=ORIENTED_EDGE('',*,*,#212,.F.);
#296=ORIENTED_EDGE('',*,*,#178,.T.);
#297=ORIENTED_EDGE('',*,*,#213,.F.);
#298=ORIENTED_EDGE('',*,*,#209,.T.);
#299=ORIENTED_EDGE('',*,*,#203,.F.);
#300=ORIENTED_EDGE('',*,*,#181,.T.);
#301=ORIENTED_EDGE('',*,*,#207,.F.);
#302=ORIENTED_EDGE('',*,*,#208,.T.);
#303=ORIENTED_EDGE('',*,*,#199,.T.);
#304=PLANE('',#348);
#305=PLANE('',#355);
#306=PLANE('',#356);
#307=PLANE('',#357);
#308=PLANE('',#358);
#309=PLANE('',#359);
#310=PLANE('',#360);
#311=PLANE('',#361);
#312=PLANE('',#366);
#313=PLANE('',#367);
#314=PLANE('',#370);
#315=PLANE('',#371);
#316=PLANE('',#372);
#317=ADVANCED_FACE('',(#21,#19),#304,.T.);
#318=ADVANCED_FACE('',(#22),#15,.T.);
#319=ADVANCED_FACE('',(#23),#305,.T.);
#320=ADVANCED_FACE('',(#24),#306,.T.);
#321=ADVANCED_FACE('',(#25),#307,.T.);
#322=ADVANCED_FACE('',(#26),#308,.T.);
#323=ADVANCED_FACE('',(#27),#309,.T.);
#324=ADVANCED_FACE('',(#28),#310,.F.);
#325=ADVANCED_FACE('',(#29),#311,.T.);
#326=ADVANCED_FACE('',(#30),#16,.F.);
#327=ADVANCED_FACE('',(#31),#17,.T.);
#328=ADVANCED_FACE('',(#32),#312,.T.);
#329=ADVANCED_FACE('',(#33,#20),#313,.T.);
#330=ADVANCED_FACE('',(#34),#18,.T.);
#331=ADVANCED_FACE('',(#35),#314,.T.);
#332=ADVANCED_FACE('',(#36),#315,.T.);
#333=ADVANCED_FACE('',(#37),#316,.T.);
#334=CLOSED_SHELL('',(#317,#318,#319,#320,#321,#322,#323,#324,#325,#326,
#327,#328,#329,#330,#331,#332,#333));
#335=DERIVED_UNIT_ELEMENT(#337,1.);
#336=DERIVED_UNIT_ELEMENT(#560,-3.);
#337=(
MASS_UNIT()
NAMED_UNIT(*)
SI_UNIT(.KILO.,.GRAM.)
);
#338=DERIVED_UNIT((#335,#336));
#339=MEASURE_REPRESENTATION_ITEM('density measure',
POSITIVE_RATIO_MEASURE(7850.),#338);
#340=PROPERTY_DEFINITION_REPRESENTATION(#345,#342);
#341=PROPERTY_DEFINITION_REPRESENTATION(#346,#343);
#342=REPRESENTATION('material name',(#344),#557);
#343=REPRESENTATION('density',(#339),#557);
#344=DESCRIPTIVE_REPRESENTATION_ITEM('Steel','Steel');
#345=PROPERTY_DEFINITION('material property','material name',#567);
#346=PROPERTY_DEFINITION('material property','density of part',#567);
#347=AXIS2_PLACEMENT_3D('',#462,#373,#374);
#348=AXIS2_PLACEMENT_3D('',#463,#375,#376);
#349=AXIS2_PLACEMENT_3D('',#478,#383,#384);
#350=AXIS2_PLACEMENT_3D('',#482,#386,#387);
#351=AXIS2_PLACEMENT_3D('',#486,#389,#390);
#352=AXIS2_PLACEMENT_3D('',#493,#394,#395);
#353=AXIS2_PLACEMENT_3D('',#494,#396,#397);
#354=AXIS2_PLACEMENT_3D('',#498,#399,#400);
#355=AXIS2_PLACEMENT_3D('',#500,#402,#403);
#356=AXIS2_PLACEMENT_3D('',#504,#406,#407);
#357=AXIS2_PLACEMENT_3D('',#508,#410,#411);
#358=AXIS2_PLACEMENT_3D('',#512,#414,#415);
#359=AXIS2_PLACEMENT_3D('',#516,#418,#419);
#360=AXIS2_PLACEMENT_3D('',#520,#422,#423);
#361=AXIS2_PLACEMENT_3D('',#524,#426,#427);
#362=AXIS2_PLACEMENT_3D('',#528,#430,#431);
#363=AXIS2_PLACEMENT_3D('',#530,#432,#433);
#364=AXIS2_PLACEMENT_3D('',#532,#435,#436);
#365=AXIS2_PLACEMENT_3D('',#536,#438,#439);
#366=AXIS2_PLACEMENT_3D('',#538,#441,#442);
#367=AXIS2_PLACEMENT_3D('',#542,#445,#446);
#368=AXIS2_PLACEMENT_3D('',#547,#449,#450);
#369=AXIS2_PLACEMENT_3D('',#549,#452,#453);
#370=AXIS2_PLACEMENT_3D('',#552,#456,#457);
#371=AXIS2_PLACEMENT_3D('',#553,#458,#459);
#372=AXIS2_PLACEMENT_3D('',#554,#460,#461);
#373=DIRECTION('axis',(0.,0.,1.));
#374=DIRECTION('refdir',(1.,0.,0.));
#375=DIRECTION('center_axis',(0.,-1.,0.));
#376=DIRECTION('ref_axis',(1.,0.,0.));
#377=DIRECTION('',(1.,0.,0.));
#378=DIRECTION('',(-3.38662754405628E-9,0.,1.));
#379=DIRECTION('',(1.,0.,0.));
#380=DIRECTION('',(0.,0.,-1.));
#381=DIRECTION('',(-1.,0.,0.));
#382=DIRECTION('',(0.,0.,-1.));
#383=DIRECTION('center_axis',(0.,1.,0.));
#384=DIRECTION('ref_axis',(0.707106781186547,0.,0.707106781186548));
#385=DIRECTION('',(1.,0.,0.));
#386=DIRECTION('center_axis',(0.,1.,0.));
#387=DIRECTION('ref_axis',(-0.707106781186547,0.,0.707106781186548));
#388=DIRECTION('',(0.,0.,1.));
#389=DIRECTION('center_axis',(0.,1.,0.));
#390=DIRECTION('ref_axis',(-0.923879532511287,0.,-0.38268343236509));
#391=DIRECTION('',(-0.707106781186547,0.,0.707106781186548));
#392=DIRECTION('',(-1.,0.,0.));
#393=DIRECTION('',(0.,0.,-1.));
#394=DIRECTION('center_axis',(0.,-1.,0.));
#395=DIRECTION('ref_axis',(-1.,0.,0.));
#396=DIRECTION('center_axis',(0.,1.,0.));
#397=DIRECTION('ref_axis',(0.707106781186547,0.,0.707106781186548));
#398=DIRECTION('',(0.,1.,0.));
#399=DIRECTION('center_axis',(0.,-1.,0.));
#400=DIRECTION('ref_axis',(0.707106781186547,0.,0.707106781186548));
#401=DIRECTION('',(0.,-1.,0.));
#402=DIRECTION('center_axis',(1.,0.,0.));
#403=DIRECTION('ref_axis',(0.,0.,-1.));
#404=DIRECTION('',(0.,1.,0.));
#405=DIRECTION('',(0.,0.,-1.));
#406=DIRECTION('center_axis',(0.,0.,-1.));
#407=DIRECTION('ref_axis',(-1.,0.,0.));
#408=DIRECTION('',(0.,1.,0.));
#409=DIRECTION('',(-1.,0.,0.));
#410=DIRECTION('center_axis',(1.,0.,0.));
#411=DIRECTION('ref_axis',(0.,0.,-1.));
#412=DIRECTION('',(0.,1.,0.));
#413=DIRECTION('',(0.,0.,-1.));
#414=DIRECTION('center_axis',(0.,0.,1.));
#415=DIRECTION('ref_axis',(1.,0.,0.));
#416=DIRECTION('',(0.,1.,0.));
#417=DIRECTION('',(1.,0.,0.));
#418=DIRECTION('center_axis',(-1.,0.,-3.38662754405628E-9));
#419=DIRECTION('ref_axis',(-3.38662754405628E-9,0.,1.));
#420=DIRECTION('',(0.,1.,0.));
#421=DIRECTION('',(-3.38662754405628E-9,0.,1.));
#422=DIRECTION('center_axis',(0.,0.,-1.));
#423=DIRECTION('ref_axis',(-1.,0.,0.));
#424=DIRECTION('',(0.,-1.,0.));
#425=DIRECTION('',(1.,0.,0.));
#426=DIRECTION('center_axis',(1.,0.,0.));
#427=DIRECTION('ref_axis',(0.,0.,-1.));
#428=DIRECTION('',(0.,-1.,0.));
#429=DIRECTION('',(0.,0.,-1.));
#430=DIRECTION('center_axis',(0.,-1.,0.));
#431=DIRECTION('ref_axis',(-1.,0.,0.));
#432=DIRECTION('center_axis',(0.,-1.,0.));
#433=DIRECTION('ref_axis',(-1.,0.,0.));
#434=DIRECTION('',(0.,-1.,0.));
#435=DIRECTION('center_axis',(0.,1.,0.));
#436=DIRECTION('ref_axis',(-0.923879532511287,0.,-0.38268343236509));
#437=DIRECTION('',(0.,1.,0.));
#438=DIRECTION('center_axis',(0.,-1.,0.));
#439=DIRECTION('ref_axis',(-0.923879532511287,0.,-0.38268343236509));
#440=DIRECTION('',(0.,-1.,0.));
#441=DIRECTION('center_axis',(-0.707106781186548,0.,-0.707106781186547));
#442=DIRECTION('ref_axis',(-0.707106781186547,0.,0.707106781186548));
#443=DIRECTION('',(0.707106781186547,0.,-0.707106781186548));
#444=DIRECTION('',(0.,-1.,0.));
#445=DIRECTION('center_axis',(0.,1.,0.));
#446=DIRECTION('ref_axis',(0.,0.,1.));
#447=DIRECTION('',(1.,0.,0.));
#448=DIRECTION('',(0.,0.,-1.));
#449=DIRECTION('center_axis',(0.,-1.,0.));
#450=DIRECTION('ref_axis',(-0.707106781186547,0.,0.707106781186548));
#451=DIRECTION('',(1.,0.,0.));
#452=DIRECTION('center_axis',(0.,1.,0.));
#453=DIRECTION('ref_axis',(-0.707106781186547,0.,0.707106781186548));
#454=DIRECTION('',(0.,1.,0.));
#455=DIRECTION('',(0.,-1.,0.));
#456=DIRECTION('center_axis',(0.,0.,1.));
#457=DIRECTION('ref_axis',(1.,0.,0.));
#458=DIRECTION('center_axis',(-1.,0.,0.));
#459=DIRECTION('ref_axis',(0.,0.,1.));
#460=DIRECTION('center_axis',(0.,0.,-1.));
#461=DIRECTION('ref_axis',(-1.,0.,0.));
#462=CARTESIAN_POINT('',(0.,0.,0.));
#463=CARTESIAN_POINT('Origin',(0.,7.,1.50000002235174));
#464=CARTESIAN_POINT('',(5.00000007450581,7.,9.50000016391277));
#465=CARTESIAN_POINT('',(8.,7.,9.50000016391277));
#466=CARTESIAN_POINT('',(3.50000005215406,7.,9.50000016391277));
#467=CARTESIAN_POINT('',(5.00000007450581,7.,-11.));
#468=CARTESIAN_POINT('',(5.00000005333938,7.,-4.74999998035756));
#469=CARTESIAN_POINT('',(-5.,7.,-11.));
#470=CARTESIAN_POINT('',(-2.5,7.,-11.));
#471=CARTESIAN_POINT('',(-5.,7.,11.));
#472=CARTESIAN_POINT('',(-5.,7.,6.25000001117587));
#473=CARTESIAN_POINT('',(8.,7.,11.0000001639128));
#474=CARTESIAN_POINT('',(2.5,7.,11.));
#475=CARTESIAN_POINT('',(8.,7.,14.0000002384186));
#476=CARTESIAN_POINT('',(8.,7.,8.75000013038516));
#477=CARTESIAN_POINT('',(6.,7.,16.0000002384186));
#478=CARTESIAN_POINT('Origin',(6.,7.,14.0000002384186));
#479=CARTESIAN_POINT('',(-6.,7.,16.0000002384186));
#480=CARTESIAN_POINT('',(-4.,7.,16.0000002384186));
#481=CARTESIAN_POINT('',(-8.,7.,14.0000002384186));
#482=CARTESIAN_POINT('Origin',(-6.,7.,14.0000002384186));
#483=CARTESIAN_POINT('',(-8.,7.,-14.7157289462532));
#484=CARTESIAN_POINT('',(-8.,7.,-5.75000008568168));
#485=CARTESIAN_POINT('',(-2.14213562373095,7.,-28.8578645699841));
#486=CARTESIAN_POINT('Origin',(12.,7.,-14.7157289462532));
#487=CARTESIAN_POINT('',(5.,7.,-36.0000001937151));
#488=CARTESIAN_POINT('',(-8.87500005401671,7.,-22.1250001396984));
#489=CARTESIAN_POINT('',(8.,7.,-36.0000001937151));
#490=CARTESIAN_POINT('',(4.,7.,-36.0000001937151));
#491=CARTESIAN_POINT('',(8.,7.,8.75000013038516));
#492=CARTESIAN_POINT('',(1.15,7.,13.1250001192093));
#493=CARTESIAN_POINT('Origin',(-1.11022302462516E-15,7.,13.1250001192093));
#494=CARTESIAN_POINT('Origin',(6.,0.,14.0000002384186));
#495=CARTESIAN_POINT('',(8.,18.,14.0000002384186));
#496=CARTESIAN_POINT('',(8.,0.,14.0000002384186));
#497=CARTESIAN_POINT('',(6.,18.,16.0000002384186));
#498=CARTESIAN_POINT('Origin',(6.,18.,14.0000002384186));
#499=CARTESIAN_POINT('',(6.,0.,16.0000002384186));
#500=CARTESIAN_POINT('Origin',(8.,0.,16.0000002384186));
#501=CARTESIAN_POINT('',(8.,18.,11.0000001639128));
#502=CARTESIAN_POINT('',(8.,9.,11.0000001639128));
#503=CARTESIAN_POINT('',(8.,18.,16.0000002384186));
#504=CARTESIAN_POINT('Origin',(5.,0.,11.));
#505=CARTESIAN_POINT('',(-5.,18.,11.));
#506=CARTESIAN_POINT('',(-5.,0.,11.));
#507=CARTESIAN_POINT('',(4.,18.,11.0000001639128));
#508=CARTESIAN_POINT('Origin',(-5.,0.,11.));
#509=CARTESIAN_POINT('',(-5.,18.,-11.));
#510=CARTESIAN_POINT('',(-5.,0.,-11.));
#511=CARTESIAN_POINT('',(-5.,18.,11.));
#512=CARTESIAN_POINT('Origin',(-5.,0.,-11.));
#513=CARTESIAN_POINT('',(5.00000007450581,18.,-11.));
#514=CARTESIAN_POINT('',(5.00000007450581,0.,-11.));
#515=CARTESIAN_POINT('',(-5.,18.,-11.));
#516=CARTESIAN_POINT('Origin',(5.00000007450581,0.,-11.));
#517=CARTESIAN_POINT('',(5.00000007450581,18.,9.50000016391277));
#518=CARTESIAN_POINT('',(5.00000000507994,0.,9.50000016391277));
#519=CARTESIAN_POINT('',(5.00000007450581,18.,-11.));
#520=CARTESIAN_POINT('Origin',(7.00000010430813,0.,9.50000016391277));
#521=CARTESIAN_POINT('',(8.,18.,9.50000016391277));
#522=CARTESIAN_POINT('',(8.,9.,9.50000016391277));
#523=CARTESIAN_POINT('',(3.50000005215406,18.,9.50000016391277));
#524=CARTESIAN_POINT('Origin',(8.,0.,16.0000002384186));
#525=CARTESIAN_POINT('',(8.,18.,-36.0000001937151));
#526=CARTESIAN_POINT('',(8.,0.,-36.0000001937151));
#527=CARTESIAN_POINT('',(8.,18.,16.0000002384186));
#528=CARTESIAN_POINT('Origin',(-1.11022302462516E-15,18.,13.1250001192093));
#529=CARTESIAN_POINT('',(1.15,18.,13.1250001192093));
#530=CARTESIAN_POINT('Origin',(-1.11022302462516E-15,18.,13.1250001192093));
#531=CARTESIAN_POINT('',(1.15,18.,13.1250001192093));
#532=CARTESIAN_POINT('Origin',(12.,0.,-14.7157289462532));
#533=CARTESIAN_POINT('',(-8.,18.,-14.7157289462532));
#534=CARTESIAN_POINT('',(-8.,0.,-14.7157289462532));
#535=CARTESIAN_POINT('',(-2.14213562373095,18.,-28.8578645699841));
#536=CARTESIAN_POINT('Origin',(12.,18.,-14.7157289462532));
#537=CARTESIAN_POINT('',(-2.14213562373095,0.,-28.8578645699841));
#538=CARTESIAN_POINT('Origin',(-1.5,0.,-29.5000001937151));
#539=CARTESIAN_POINT('',(5.,18.,-36.0000001937151));
#540=CARTESIAN_POINT('',(-8.87500005401671,18.,-22.1250001396984));
#541=CARTESIAN_POINT('',(5.,0.,-36.0000001937151));
#542=CARTESIAN_POINT('Origin',(0.,18.,1.50000002235174));
#543=CARTESIAN_POINT('',(8.,18.,-36.0000001937151));
#544=CARTESIAN_POINT('',(-8.,18.,14.0000002384186));
#545=CARTESIAN_POINT('',(-8.,18.,-13.0000001937151));
#546=CARTESIAN_POINT('',(-6.,18.,16.0000002384186));
#547=CARTESIAN_POINT('Origin',(-6.,18.,14.0000002384186));
#548=CARTESIAN_POINT('',(-8.,18.,16.0000002384186));
#549=CARTESIAN_POINT('Origin',(-6.,0.,14.0000002384186));
#550=CARTESIAN_POINT('',(-6.,0.,16.0000002384186));
#551=CARTESIAN_POINT('',(-8.,0.,14.0000002384186));
#552=CARTESIAN_POINT('Origin',(-8.,0.,16.0000002384186));
#553=CARTESIAN_POINT('Origin',(-8.,0.,-13.0000001937151));
#554=CARTESIAN_POINT('Origin',(8.,0.,-36.0000001937151));
#555=UNCERTAINTY_MEASURE_WITH_UNIT(LENGTH_MEASURE(0.01),#559,
'DISTANCE_ACCURACY_VALUE',
'Maximum model space distance between geometric entities at asserted c
onnectivities');
#556=UNCERTAINTY_MEASURE_WITH_UNIT(LENGTH_MEASURE(0.01),#559,
'DISTANCE_ACCURACY_VALUE',
'Maximum model space distance between geometric entities at asserted c
onnectivities');
#557=(
GEOMETRIC_REPRESENTATION_CONTEXT(3)
GLOBAL_UNCERTAINTY_ASSIGNED_CONTEXT((#555))
GLOBAL_UNIT_ASSIGNED_CONTEXT((#559,#561,#562))
REPRESENTATION_CONTEXT('','3D')
);
#558=(
GEOMETRIC_REPRESENTATION_CONTEXT(3)
GLOBAL_UNCERTAINTY_ASSIGNED_CONTEXT((#556))
GLOBAL_UNIT_ASSIGNED_CONTEXT((#559,#561,#562))
REPRESENTATION_CONTEXT('','3D')
);
#559=(
LENGTH_UNIT()
NAMED_UNIT(*)
SI_UNIT(.MILLI.,.METRE.)
);
#560=(
LENGTH_UNIT()
NAMED_UNIT(*)
SI_UNIT($,.METRE.)
);
#561=(
NAMED_UNIT(*)
PLANE_ANGLE_UNIT()
SI_UNIT($,.RADIAN.)
);
#562=(
NAMED_UNIT(*)
SI_UNIT($,.STERADIAN.)
SOLID_ANGLE_UNIT()
);
#563=SHAPE_DEFINITION_REPRESENTATION(#564,#565);
#564=PRODUCT_DEFINITION_SHAPE('',$,#567);
#565=SHAPE_REPRESENTATION('',(#347),#557);
#566=PRODUCT_DEFINITION_CONTEXT('part definition',#571,'design');
#567=PRODUCT_DEFINITION('LEG DESIGN UPDATED','LEG DESIGN UPDATED v3',#568,
#566);
#568=PRODUCT_DEFINITION_FORMATION('',$,#573);
#569=PRODUCT_RELATED_PRODUCT_CATEGORY('LEG DESIGN UPDATED v3',
'LEG DESIGN UPDATED v3',(#573));
#570=APPLICATION_PROTOCOL_DEFINITION('international standard',
'automotive_design',2009,#571);
#571=APPLICATION_CONTEXT(
'Core Data for Automotive Mechanical Design Process');
#572=PRODUCT_CONTEXT('part definition',#571,'mechanical');
#573=PRODUCT('LEG DESIGN UPDATED','LEG DESIGN UPDATED v3',$,(#572));
#574=PRESENTATION_STYLE_ASSIGNMENT((#575));
#575=SURFACE_STYLE_USAGE(.BOTH.,#576);
#576=SURFACE_SIDE_STYLE('',(#577));
#577=SURFACE_STYLE_FILL_AREA(#578);
#578=FILL_AREA_STYLE('Steel - Satin',(#579));
#579=FILL_AREA_STYLE_COLOUR('Steel - Satin',#580);
#580=COLOUR_RGB('Steel - Satin',0.627450980392157,0.627450980392157,0.627450980392157);
ENDSEC;
END-ISO-10303-21;
