ISO-10303-21;
HEADER;
/* Generated by software containing ST-Developer
 * from STEP Tools, Inc. (www.steptools.com) 
 */

FILE_DESCRIPTION(
/* description */ (''),
/* implementation_level */ '2;1');

FILE_NAME(
/* name */ 'KNEE DESIGN UPDATED.step',
/* time_stamp */ '2026-05-26T23:19:51+05:30',
/* author */ (''),
/* organization */ (''),
/* preprocessor_version */ 'ST-DEVELOPER v20.1',
/* originating_system */ 'Autodesk Translation Framework v15.8.0.0',
/* authorisation */ '');

FILE_SCHEMA (('AUTOMOTIVE_DESIGN { 1 0 10303 214 3 1 1 }'));
ENDSEC;

DATA;
#10=MECHANICAL_DESIGN_GEOMETRIC_PRESENTATION_REPRESENTATION('',(#13),#1150);
#11=SHAPE_REPRESENTATION_RELATIONSHIP('SRR','None',#1157,#12);
#12=ADVANCED_BREP_SHAPE_REPRESENTATION('',(#14),#1149);
#13=STYLED_ITEM('',(#1166),#14);
#14=MANIFOLD_SOLID_BREP('Body1',#692);
#15=FACE_BOUND('',#97,.T.);
#16=FACE_BOUND('',#101,.T.);
#17=FACE_BOUND('',#114,.T.);
#18=FACE_BOUND('',#118,.T.);
#19=CONICAL_SURFACE('',#727,1.3,0.785398163397448);
#20=CONICAL_SURFACE('',#730,1.425,0.785398163397448);
#21=PLANE('',#712);
#22=PLANE('',#713);
#23=PLANE('',#717);
#24=PLANE('',#718);
#25=PLANE('',#720);
#26=PLANE('',#721);
#27=PLANE('',#722);
#28=PLANE('',#723);
#29=PLANE('',#733);
#30=PLANE('',#734);
#31=PLANE('',#735);
#32=PLANE('',#736);
#33=PLANE('',#737);
#34=PLANE('',#739);
#35=PLANE('',#740);
#36=PLANE('',#745);
#37=PLANE('',#746);
#38=PLANE('',#747);
#39=PLANE('',#748);
#40=PLANE('',#752);
#41=PLANE('',#756);
#42=PLANE('',#757);
#43=PLANE('',#758);
#44=PLANE('',#759);
#45=PLANE('',#760);
#46=FACE_OUTER_BOUND('',#81,.T.);
#47=FACE_OUTER_BOUND('',#82,.T.);
#48=FACE_OUTER_BOUND('',#83,.T.);
#49=FACE_OUTER_BOUND('',#84,.T.);
#50=FACE_OUTER_BOUND('',#85,.T.);
#51=FACE_OUTER_BOUND('',#86,.T.);
#52=FACE_OUTER_BOUND('',#87,.T.);
#53=FACE_OUTER_BOUND('',#88,.T.);
#54=FACE_OUTER_BOUND('',#89,.T.);
#55=FACE_OUTER_BOUND('',#90,.T.);
#56=FACE_OUTER_BOUND('',#91,.T.);
#57=FACE_OUTER_BOUND('',#92,.T.);
#58=FACE_OUTER_BOUND('',#93,.T.);
#59=FACE_OUTER_BOUND('',#94,.T.);
#60=FACE_OUTER_BOUND('',#95,.T.);
#61=FACE_OUTER_BOUND('',#96,.T.);
#62=FACE_OUTER_BOUND('',#98,.T.);
#63=FACE_OUTER_BOUND('',#99,.T.);
#64=FACE_OUTER_BOUND('',#100,.T.);
#65=FACE_OUTER_BOUND('',#102,.T.);
#66=FACE_OUTER_BOUND('',#103,.T.);
#67=FACE_OUTER_BOUND('',#104,.T.);
#68=FACE_OUTER_BOUND('',#105,.T.);
#69=FACE_OUTER_BOUND('',#106,.T.);
#70=FACE_OUTER_BOUND('',#107,.T.);
#71=FACE_OUTER_BOUND('',#108,.T.);
#72=FACE_OUTER_BOUND('',#109,.T.);
#73=FACE_OUTER_BOUND('',#110,.T.);
#74=FACE_OUTER_BOUND('',#111,.T.);
#75=FACE_OUTER_BOUND('',#112,.T.);
#76=FACE_OUTER_BOUND('',#113,.T.);
#77=FACE_OUTER_BOUND('',#115,.T.);
#78=FACE_OUTER_BOUND('',#116,.T.);
#79=FACE_OUTER_BOUND('',#117,.T.);
#80=FACE_OUTER_BOUND('',#119,.T.);
#81=EDGE_LOOP('',(#455,#456,#457,#458));
#82=EDGE_LOOP('',(#459,#460,#461,#462));
#83=EDGE_LOOP('',(#463,#464,#465,#466));
#84=EDGE_LOOP('',(#467,#468,#469,#470));
#85=EDGE_LOOP('',(#471,#472,#473,#474));
#86=EDGE_LOOP('',(#475,#476,#477,#478));
#87=EDGE_LOOP('',(#479,#480,#481,#482,#483,#484,#485,#486,#487,#488,#489,
#490,#491,#492,#493));
#88=EDGE_LOOP('',(#494,#495,#496,#497,#498,#499,#500,#501));
#89=EDGE_LOOP('',(#502,#503,#504,#505));
#90=EDGE_LOOP('',(#506,#507,#508,#509));
#91=EDGE_LOOP('',(#510,#511,#512,#513,#514,#515,#516,#517));
#92=EDGE_LOOP('',(#518,#519,#520,#521));
#93=EDGE_LOOP('',(#522,#523,#524,#525));
#94=EDGE_LOOP('',(#526,#527,#528,#529));
#95=EDGE_LOOP('',(#530,#531,#532,#533));
#96=EDGE_LOOP('',(#534,#535,#536,#537,#538,#539,#540));
#97=EDGE_LOOP('',(#541));
#98=EDGE_LOOP('',(#542,#543,#544,#545));
#99=EDGE_LOOP('',(#546,#547,#548,#549));
#100=EDGE_LOOP('',(#550,#551,#552,#553,#554,#555,#556,#557,#558,#559));
#101=EDGE_LOOP('',(#560));
#102=EDGE_LOOP('',(#561,#562,#563,#564));
#103=EDGE_LOOP('',(#565,#566,#567,#568));
#104=EDGE_LOOP('',(#569,#570,#571,#572));
#105=EDGE_LOOP('',(#573,#574,#575,#576));
#106=EDGE_LOOP('',(#577,#578,#579,#580,#581,#582));
#107=EDGE_LOOP('',(#583,#584,#585,#586));
#108=EDGE_LOOP('',(#587,#588,#589,#590,#591));
#109=EDGE_LOOP('',(#592,#593,#594,#595));
#110=EDGE_LOOP('',(#596,#597,#598,#599));
#111=EDGE_LOOP('',(#600,#601,#602,#603));
#112=EDGE_LOOP('',(#604,#605,#606,#607));
#113=EDGE_LOOP('',(#608,#609,#610,#611,#612,#613,#614,#615));
#114=EDGE_LOOP('',(#616));
#115=EDGE_LOOP('',(#617,#618,#619,#620,#621,#622,#623,#624,#625,#626,#627,
#628,#629,#630));
#116=EDGE_LOOP('',(#631,#632,#633,#634));
#117=EDGE_LOOP('',(#635,#636,#637,#638,#639,#640,#641,#642));
#118=EDGE_LOOP('',(#643));
#119=EDGE_LOOP('',(#644,#645,#646,#647,#648));
#120=CIRCLE('',#707,2.15);
#121=CIRCLE('',#708,2.15);
#122=CIRCLE('',#710,2.15);
#123=CIRCLE('',#711,2.15);
#124=CIRCLE('',#715,3.9);
#125=CIRCLE('',#716,3.9);
#126=CIRCLE('',#719,6.);
#127=CIRCLE('',#725,3.9);
#128=CIRCLE('',#726,3.9);
#129=CIRCLE('',#728,1.7);
#130=CIRCLE('',#729,1.2);
#131=CIRCLE('',#731,1.7);
#132=CIRCLE('',#732,1.19999985098838);
#133=CIRCLE('',#738,6.);
#134=CIRCLE('',#743,6.);
#135=CIRCLE('',#744,6.);
#136=CIRCLE('',#750,2.15);
#137=CIRCLE('',#751,2.15);
#138=CIRCLE('',#754,3.9);
#139=CIRCLE('',#755,3.9);
#140=LINE('',#954,#217);
#141=LINE('',#958,#218);
#142=LINE('',#963,#219);
#143=LINE('',#967,#220);
#144=LINE('',#971,#221);
#145=LINE('',#973,#222);
#146=LINE('',#974,#223);
#147=LINE('',#977,#224);
#148=LINE('',#979,#225);
#149=LINE('',#980,#226);
#150=LINE('',#984,#227);
#151=LINE('',#988,#228);
#152=LINE('',#991,#229);
#153=LINE('',#992,#230);
#154=LINE('',#995,#231);
#155=LINE('',#997,#232);
#156=LINE('',#999,#233);
#157=LINE('',#1003,#234);
#158=LINE('',#1005,#235);
#159=LINE('',#1007,#236);
#160=LINE('',#1008,#237);
#161=LINE('',#1009,#238);
#162=LINE('',#1012,#239);
#163=LINE('',#1014,#240);
#164=LINE('',#1015,#241);
#165=LINE('',#1016,#242);
#166=LINE('',#1020,#243);
#167=LINE('',#1022,#244);
#168=LINE('',#1024,#245);
#169=LINE('',#1025,#246);
#170=LINE('',#1029,#247);
#171=LINE('',#1031,#248);
#172=LINE('',#1033,#249);
#173=LINE('',#1034,#250);
#174=LINE('',#1036,#251);
#175=LINE('',#1038,#252);
#176=LINE('',#1040,#253);
#177=LINE('',#1042,#254);
#178=LINE('',#1044,#255);
#179=LINE('',#1045,#256);
#180=LINE('',#1050,#257);
#181=LINE('',#1056,#258);
#182=LINE('',#1062,#259);
#183=LINE('',#1066,#260);
#184=LINE('',#1068,#261);
#185=LINE('',#1069,#262);
#186=LINE('',#1072,#263);
#187=LINE('',#1073,#264);
#188=LINE('',#1075,#265);
#189=LINE('',#1077,#266);
#190=LINE('',#1078,#267);
#191=LINE('',#1081,#268);
#192=LINE('',#1082,#269);
#193=LINE('',#1085,#270);
#194=LINE('',#1086,#271);
#195=LINE('',#1091,#272);
#196=LINE('',#1092,#273);
#197=LINE('',#1094,#274);
#198=LINE('',#1096,#275);
#199=LINE('',#1097,#276);
#200=LINE('',#1099,#277);
#201=LINE('',#1101,#278);
#202=LINE('',#1107,#279);
#203=LINE('',#1110,#280);
#204=LINE('',#1113,#281);
#205=LINE('',#1114,#282);
#206=LINE('',#1115,#283);
#207=LINE('',#1118,#284);
#208=LINE('',#1119,#285);
#209=LINE('',#1123,#286);
#210=LINE('',#1125,#287);
#211=LINE('',#1127,#288);
#212=LINE('',#1128,#289);
#213=LINE('',#1133,#290);
#214=LINE('',#1136,#291);
#215=LINE('',#1137,#292);
#216=LINE('',#1144,#293);
#217=VECTOR('',#765,10.);
#218=VECTOR('',#768,10.);
#219=VECTOR('',#773,10.);
#220=VECTOR('',#776,10.);
#221=VECTOR('',#781,10.);
#222=VECTOR('',#782,10.);
#223=VECTOR('',#783,10.);
#224=VECTOR('',#786,10.);
#225=VECTOR('',#787,10.);
#226=VECTOR('',#788,10.);
#227=VECTOR('',#791,10.);
#228=VECTOR('',#794,10.);
#229=VECTOR('',#799,10.);
#230=VECTOR('',#800,10.);
#231=VECTOR('',#803,10.);
#232=VECTOR('',#804,10.);
#233=VECTOR('',#805,10.);
#234=VECTOR('',#808,10.);
#235=VECTOR('',#809,10.);
#236=VECTOR('',#810,10.);
#237=VECTOR('',#811,10.);
#238=VECTOR('',#812,10.);
#239=VECTOR('',#815,10.);
#240=VECTOR('',#816,10.);
#241=VECTOR('',#817,10.);
#242=VECTOR('',#818,10.);
#243=VECTOR('',#821,10.);
#244=VECTOR('',#822,10.);
#245=VECTOR('',#823,10.);
#246=VECTOR('',#824,10.);
#247=VECTOR('',#827,10.);
#248=VECTOR('',#828,10.);
#249=VECTOR('',#829,10.);
#250=VECTOR('',#830,10.);
#251=VECTOR('',#833,10.);
#252=VECTOR('',#834,10.);
#253=VECTOR('',#835,10.);
#254=VECTOR('',#836,10.);
#255=VECTOR('',#837,10.);
#256=VECTOR('',#838,10.);
#257=VECTOR('',#843,10.);
#258=VECTOR('',#850,1.3);
#259=VECTOR('',#857,1.425);
#260=VECTOR('',#862,10.);
#261=VECTOR('',#863,10.);
#262=VECTOR('',#864,10.);
#263=VECTOR('',#867,10.);
#264=VECTOR('',#868,10.);
#265=VECTOR('',#869,10.);
#266=VECTOR('',#870,10.);
#267=VECTOR('',#871,10.);
#268=VECTOR('',#874,10.);
#269=VECTOR('',#875,10.);
#270=VECTOR('',#878,10.);
#271=VECTOR('',#879,10.);
#272=VECTOR('',#884,10.);
#273=VECTOR('',#885,10.);
#274=VECTOR('',#886,10.);
#275=VECTOR('',#887,10.);
#276=VECTOR('',#888,10.);
#277=VECTOR('',#891,10.);
#278=VECTOR('',#894,10.);
#279=VECTOR('',#901,10.);
#280=VECTOR('',#904,10.);
#281=VECTOR('',#907,10.);
#282=VECTOR('',#908,10.);
#283=VECTOR('',#909,10.);
#284=VECTOR('',#914,10.);
#285=VECTOR('',#915,10.);
#286=VECTOR('',#918,10.);
#287=VECTOR('',#919,10.);
#288=VECTOR('',#920,10.);
#289=VECTOR('',#921,10.);
#290=VECTOR('',#926,10.);
#291=VECTOR('',#931,10.);
#292=VECTOR('',#932,10.);
#293=VECTOR('',#945,10.);
#294=VERTEX_POINT('',#952);
#295=VERTEX_POINT('',#953);
#296=VERTEX_POINT('',#955);
#297=VERTEX_POINT('',#957);
#298=VERTEX_POINT('',#961);
#299=VERTEX_POINT('',#962);
#300=VERTEX_POINT('',#964);
#301=VERTEX_POINT('',#966);
#302=VERTEX_POINT('',#970);
#303=VERTEX_POINT('',#972);
#304=VERTEX_POINT('',#976);
#305=VERTEX_POINT('',#978);
#306=VERTEX_POINT('',#982);
#307=VERTEX_POINT('',#983);
#308=VERTEX_POINT('',#985);
#309=VERTEX_POINT('',#987);
#310=VERTEX_POINT('',#994);
#311=VERTEX_POINT('',#996);
#312=VERTEX_POINT('',#998);
#313=VERTEX_POINT('',#1000);
#314=VERTEX_POINT('',#1002);
#315=VERTEX_POINT('',#1004);
#316=VERTEX_POINT('',#1006);
#317=VERTEX_POINT('',#1011);
#318=VERTEX_POINT('',#1013);
#319=VERTEX_POINT('',#1018);
#320=VERTEX_POINT('',#1019);
#321=VERTEX_POINT('',#1021);
#322=VERTEX_POINT('',#1023);
#323=VERTEX_POINT('',#1027);
#324=VERTEX_POINT('',#1028);
#325=VERTEX_POINT('',#1030);
#326=VERTEX_POINT('',#1032);
#327=VERTEX_POINT('',#1037);
#328=VERTEX_POINT('',#1039);
#329=VERTEX_POINT('',#1041);
#330=VERTEX_POINT('',#1043);
#331=VERTEX_POINT('',#1047);
#332=VERTEX_POINT('',#1049);
#333=VERTEX_POINT('',#1053);
#334=VERTEX_POINT('',#1055);
#335=VERTEX_POINT('',#1059);
#336=VERTEX_POINT('',#1061);
#337=VERTEX_POINT('',#1065);
#338=VERTEX_POINT('',#1067);
#339=VERTEX_POINT('',#1071);
#340=VERTEX_POINT('',#1074);
#341=VERTEX_POINT('',#1076);
#342=VERTEX_POINT('',#1080);
#343=VERTEX_POINT('',#1084);
#344=VERTEX_POINT('',#1088);
#345=VERTEX_POINT('',#1090);
#346=VERTEX_POINT('',#1093);
#347=VERTEX_POINT('',#1095);
#348=VERTEX_POINT('',#1104);
#349=VERTEX_POINT('',#1105);
#350=VERTEX_POINT('',#1108);
#351=VERTEX_POINT('',#1112);
#352=VERTEX_POINT('',#1121);
#353=VERTEX_POINT('',#1122);
#354=VERTEX_POINT('',#1124);
#355=VERTEX_POINT('',#1126);
#356=VERTEX_POINT('',#1130);
#357=VERTEX_POINT('',#1132);
#358=EDGE_CURVE('',#294,#295,#140,.T.);
#359=EDGE_CURVE('',#296,#295,#120,.T.);
#360=EDGE_CURVE('',#296,#297,#141,.T.);
#361=EDGE_CURVE('',#297,#294,#121,.T.);
#362=EDGE_CURVE('',#298,#299,#142,.T.);
#363=EDGE_CURVE('',#299,#300,#122,.T.);
#364=EDGE_CURVE('',#301,#300,#143,.T.);
#365=EDGE_CURVE('',#298,#301,#123,.T.);
#366=EDGE_CURVE('',#302,#298,#144,.T.);
#367=EDGE_CURVE('',#303,#302,#145,.T.);
#368=EDGE_CURVE('',#303,#299,#146,.T.);
#369=EDGE_CURVE('',#295,#304,#147,.T.);
#370=EDGE_CURVE('',#294,#305,#148,.T.);
#371=EDGE_CURVE('',#304,#305,#149,.T.);
#372=EDGE_CURVE('',#306,#307,#150,.T.);
#373=EDGE_CURVE('',#307,#308,#124,.T.);
#374=EDGE_CURVE('',#309,#308,#151,.T.);
#375=EDGE_CURVE('',#306,#309,#125,.T.);
#376=EDGE_CURVE('',#300,#307,#152,.T.);
#377=EDGE_CURVE('',#301,#306,#153,.T.);
#378=EDGE_CURVE('',#310,#304,#154,.T.);
#379=EDGE_CURVE('',#311,#310,#155,.T.);
#380=EDGE_CURVE('',#312,#311,#156,.T.);
#381=EDGE_CURVE('',#313,#312,#126,.T.);
#382=EDGE_CURVE('',#314,#313,#157,.T.);
#383=EDGE_CURVE('',#315,#314,#158,.T.);
#384=EDGE_CURVE('',#316,#315,#159,.T.);
#385=EDGE_CURVE('',#302,#316,#160,.T.);
#386=EDGE_CURVE('',#309,#296,#161,.T.);
#387=EDGE_CURVE('',#317,#316,#162,.T.);
#388=EDGE_CURVE('',#318,#317,#163,.T.);
#389=EDGE_CURVE('',#310,#318,#164,.T.);
#390=EDGE_CURVE('',#305,#303,#165,.T.);
#391=EDGE_CURVE('',#319,#320,#166,.T.);
#392=EDGE_CURVE('',#321,#319,#167,.T.);
#393=EDGE_CURVE('',#322,#321,#168,.T.);
#394=EDGE_CURVE('',#322,#320,#169,.T.);
#395=EDGE_CURVE('',#323,#324,#170,.T.);
#396=EDGE_CURVE('',#325,#323,#171,.T.);
#397=EDGE_CURVE('',#325,#326,#172,.T.);
#398=EDGE_CURVE('',#324,#326,#173,.T.);
#399=EDGE_CURVE('',#326,#322,#174,.T.);
#400=EDGE_CURVE('',#321,#327,#175,.T.);
#401=EDGE_CURVE('',#328,#327,#176,.T.);
#402=EDGE_CURVE('',#328,#329,#177,.T.);
#403=EDGE_CURVE('',#330,#329,#178,.T.);
#404=EDGE_CURVE('',#330,#324,#179,.T.);
#405=EDGE_CURVE('',#320,#331,#127,.T.);
#406=EDGE_CURVE('',#332,#331,#180,.T.);
#407=EDGE_CURVE('',#319,#332,#128,.T.);
#408=EDGE_CURVE('',#333,#333,#129,.T.);
#409=EDGE_CURVE('',#333,#334,#181,.T.);
#410=EDGE_CURVE('',#334,#334,#130,.T.);
#411=EDGE_CURVE('',#335,#335,#131,.T.);
#412=EDGE_CURVE('',#335,#336,#182,.T.);
#413=EDGE_CURVE('',#336,#336,#132,.T.);
#414=EDGE_CURVE('',#337,#328,#183,.T.);
#415=EDGE_CURVE('',#327,#338,#184,.T.);
#416=EDGE_CURVE('',#338,#337,#185,.T.);
#417=EDGE_CURVE('',#339,#337,#186,.T.);
#418=EDGE_CURVE('',#313,#339,#187,.T.);
#419=EDGE_CURVE('',#340,#313,#188,.T.);
#420=EDGE_CURVE('',#341,#340,#189,.T.);
#421=EDGE_CURVE('',#329,#341,#190,.T.);
#422=EDGE_CURVE('',#342,#330,#191,.T.);
#423=EDGE_CURVE('',#341,#342,#192,.T.);
#424=EDGE_CURVE('',#343,#317,#193,.T.);
#425=EDGE_CURVE('',#315,#343,#194,.T.);
#426=EDGE_CURVE('',#344,#340,#133,.T.);
#427=EDGE_CURVE('',#345,#344,#195,.T.);
#428=EDGE_CURVE('',#318,#345,#196,.T.);
#429=EDGE_CURVE('',#343,#346,#197,.T.);
#430=EDGE_CURVE('',#347,#346,#198,.T.);
#431=EDGE_CURVE('',#347,#342,#199,.T.);
#432=EDGE_CURVE('',#345,#311,#200,.T.);
#433=EDGE_CURVE('',#312,#344,#201,.T.);
#434=EDGE_CURVE('',#348,#349,#134,.T.);
#435=EDGE_CURVE('',#349,#314,#202,.T.);
#436=EDGE_CURVE('',#314,#350,#135,.T.);
#437=EDGE_CURVE('',#350,#348,#203,.T.);
#438=EDGE_CURVE('',#338,#351,#204,.T.);
#439=EDGE_CURVE('',#351,#348,#205,.T.);
#440=EDGE_CURVE('',#339,#350,#206,.T.);
#441=EDGE_CURVE('',#347,#351,#207,.T.);
#442=EDGE_CURVE('',#349,#346,#208,.T.);
#443=EDGE_CURVE('',#352,#353,#209,.T.);
#444=EDGE_CURVE('',#352,#354,#210,.T.);
#445=EDGE_CURVE('',#354,#355,#211,.T.);
#446=EDGE_CURVE('',#353,#355,#212,.T.);
#447=EDGE_CURVE('',#356,#352,#136,.T.);
#448=EDGE_CURVE('',#356,#357,#213,.T.);
#449=EDGE_CURVE('',#357,#354,#137,.T.);
#450=EDGE_CURVE('',#332,#356,#214,.T.);
#451=EDGE_CURVE('',#331,#357,#215,.T.);
#452=EDGE_CURVE('',#353,#323,#138,.T.);
#453=EDGE_CURVE('',#355,#325,#139,.T.);
#454=EDGE_CURVE('',#308,#297,#216,.T.);
#455=ORIENTED_EDGE('',*,*,#358,.T.);
#456=ORIENTED_EDGE('',*,*,#359,.F.);
#457=ORIENTED_EDGE('',*,*,#360,.T.);
#458=ORIENTED_EDGE('',*,*,#361,.T.);
#459=ORIENTED_EDGE('',*,*,#362,.T.);
#460=ORIENTED_EDGE('',*,*,#363,.T.);
#461=ORIENTED_EDGE('',*,*,#364,.F.);
#462=ORIENTED_EDGE('',*,*,#365,.F.);
#463=ORIENTED_EDGE('',*,*,#366,.F.);
#464=ORIENTED_EDGE('',*,*,#367,.F.);
#465=ORIENTED_EDGE('',*,*,#368,.T.);
#466=ORIENTED_EDGE('',*,*,#362,.F.);
#467=ORIENTED_EDGE('',*,*,#369,.F.);
#468=ORIENTED_EDGE('',*,*,#358,.F.);
#469=ORIENTED_EDGE('',*,*,#370,.T.);
#470=ORIENTED_EDGE('',*,*,#371,.F.);
#471=ORIENTED_EDGE('',*,*,#372,.T.);
#472=ORIENTED_EDGE('',*,*,#373,.T.);
#473=ORIENTED_EDGE('',*,*,#374,.F.);
#474=ORIENTED_EDGE('',*,*,#375,.F.);
#475=ORIENTED_EDGE('',*,*,#364,.T.);
#476=ORIENTED_EDGE('',*,*,#376,.T.);
#477=ORIENTED_EDGE('',*,*,#372,.F.);
#478=ORIENTED_EDGE('',*,*,#377,.F.);
#479=ORIENTED_EDGE('',*,*,#369,.T.);
#480=ORIENTED_EDGE('',*,*,#378,.F.);
#481=ORIENTED_EDGE('',*,*,#379,.F.);
#482=ORIENTED_EDGE('',*,*,#380,.F.);
#483=ORIENTED_EDGE('',*,*,#381,.F.);
#484=ORIENTED_EDGE('',*,*,#382,.F.);
#485=ORIENTED_EDGE('',*,*,#383,.F.);
#486=ORIENTED_EDGE('',*,*,#384,.F.);
#487=ORIENTED_EDGE('',*,*,#385,.F.);
#488=ORIENTED_EDGE('',*,*,#366,.T.);
#489=ORIENTED_EDGE('',*,*,#365,.T.);
#490=ORIENTED_EDGE('',*,*,#377,.T.);
#491=ORIENTED_EDGE('',*,*,#375,.T.);
#492=ORIENTED_EDGE('',*,*,#386,.T.);
#493=ORIENTED_EDGE('',*,*,#359,.T.);
#494=ORIENTED_EDGE('',*,*,#367,.T.);
#495=ORIENTED_EDGE('',*,*,#385,.T.);
#496=ORIENTED_EDGE('',*,*,#387,.F.);
#497=ORIENTED_EDGE('',*,*,#388,.F.);
#498=ORIENTED_EDGE('',*,*,#389,.F.);
#499=ORIENTED_EDGE('',*,*,#378,.T.);
#500=ORIENTED_EDGE('',*,*,#371,.T.);
#501=ORIENTED_EDGE('',*,*,#390,.T.);
#502=ORIENTED_EDGE('',*,*,#391,.F.);
#503=ORIENTED_EDGE('',*,*,#392,.F.);
#504=ORIENTED_EDGE('',*,*,#393,.F.);
#505=ORIENTED_EDGE('',*,*,#394,.T.);
#506=ORIENTED_EDGE('',*,*,#395,.F.);
#507=ORIENTED_EDGE('',*,*,#396,.F.);
#508=ORIENTED_EDGE('',*,*,#397,.T.);
#509=ORIENTED_EDGE('',*,*,#398,.F.);
#510=ORIENTED_EDGE('',*,*,#398,.T.);
#511=ORIENTED_EDGE('',*,*,#399,.T.);
#512=ORIENTED_EDGE('',*,*,#393,.T.);
#513=ORIENTED_EDGE('',*,*,#400,.T.);
#514=ORIENTED_EDGE('',*,*,#401,.F.);
#515=ORIENTED_EDGE('',*,*,#402,.T.);
#516=ORIENTED_EDGE('',*,*,#403,.F.);
#517=ORIENTED_EDGE('',*,*,#404,.T.);
#518=ORIENTED_EDGE('',*,*,#391,.T.);
#519=ORIENTED_EDGE('',*,*,#405,.T.);
#520=ORIENTED_EDGE('',*,*,#406,.F.);
#521=ORIENTED_EDGE('',*,*,#407,.F.);
#522=ORIENTED_EDGE('',*,*,#408,.F.);
#523=ORIENTED_EDGE('',*,*,#409,.T.);
#524=ORIENTED_EDGE('',*,*,#410,.F.);
#525=ORIENTED_EDGE('',*,*,#409,.F.);
#526=ORIENTED_EDGE('',*,*,#411,.F.);
#527=ORIENTED_EDGE('',*,*,#412,.T.);
#528=ORIENTED_EDGE('',*,*,#413,.F.);
#529=ORIENTED_EDGE('',*,*,#412,.F.);
#530=ORIENTED_EDGE('',*,*,#414,.T.);
#531=ORIENTED_EDGE('',*,*,#401,.T.);
#532=ORIENTED_EDGE('',*,*,#415,.T.);
#533=ORIENTED_EDGE('',*,*,#416,.T.);
#534=ORIENTED_EDGE('',*,*,#414,.F.);
#535=ORIENTED_EDGE('',*,*,#417,.F.);
#536=ORIENTED_EDGE('',*,*,#418,.F.);
#537=ORIENTED_EDGE('',*,*,#419,.F.);
#538=ORIENTED_EDGE('',*,*,#420,.F.);
#539=ORIENTED_EDGE('',*,*,#421,.F.);
#540=ORIENTED_EDGE('',*,*,#402,.F.);
#541=ORIENTED_EDGE('',*,*,#408,.T.);
#542=ORIENTED_EDGE('',*,*,#422,.T.);
#543=ORIENTED_EDGE('',*,*,#403,.T.);
#544=ORIENTED_EDGE('',*,*,#421,.T.);
#545=ORIENTED_EDGE('',*,*,#423,.T.);
#546=ORIENTED_EDGE('',*,*,#424,.T.);
#547=ORIENTED_EDGE('',*,*,#387,.T.);
#548=ORIENTED_EDGE('',*,*,#384,.T.);
#549=ORIENTED_EDGE('',*,*,#425,.T.);
#550=ORIENTED_EDGE('',*,*,#423,.F.);
#551=ORIENTED_EDGE('',*,*,#420,.T.);
#552=ORIENTED_EDGE('',*,*,#426,.F.);
#553=ORIENTED_EDGE('',*,*,#427,.F.);
#554=ORIENTED_EDGE('',*,*,#428,.F.);
#555=ORIENTED_EDGE('',*,*,#388,.T.);
#556=ORIENTED_EDGE('',*,*,#424,.F.);
#557=ORIENTED_EDGE('',*,*,#429,.T.);
#558=ORIENTED_EDGE('',*,*,#430,.F.);
#559=ORIENTED_EDGE('',*,*,#431,.T.);
#560=ORIENTED_EDGE('',*,*,#411,.T.);
#561=ORIENTED_EDGE('',*,*,#428,.T.);
#562=ORIENTED_EDGE('',*,*,#432,.T.);
#563=ORIENTED_EDGE('',*,*,#379,.T.);
#564=ORIENTED_EDGE('',*,*,#389,.T.);
#565=ORIENTED_EDGE('',*,*,#432,.F.);
#566=ORIENTED_EDGE('',*,*,#427,.T.);
#567=ORIENTED_EDGE('',*,*,#433,.F.);
#568=ORIENTED_EDGE('',*,*,#380,.T.);
#569=ORIENTED_EDGE('',*,*,#381,.T.);
#570=ORIENTED_EDGE('',*,*,#433,.T.);
#571=ORIENTED_EDGE('',*,*,#426,.T.);
#572=ORIENTED_EDGE('',*,*,#419,.T.);
#573=ORIENTED_EDGE('',*,*,#434,.T.);
#574=ORIENTED_EDGE('',*,*,#435,.T.);
#575=ORIENTED_EDGE('',*,*,#436,.T.);
#576=ORIENTED_EDGE('',*,*,#437,.T.);
#577=ORIENTED_EDGE('',*,*,#416,.F.);
#578=ORIENTED_EDGE('',*,*,#438,.T.);
#579=ORIENTED_EDGE('',*,*,#439,.T.);
#580=ORIENTED_EDGE('',*,*,#437,.F.);
#581=ORIENTED_EDGE('',*,*,#440,.F.);
#582=ORIENTED_EDGE('',*,*,#417,.T.);
#583=ORIENTED_EDGE('',*,*,#382,.T.);
#584=ORIENTED_EDGE('',*,*,#418,.T.);
#585=ORIENTED_EDGE('',*,*,#440,.T.);
#586=ORIENTED_EDGE('',*,*,#436,.F.);
#587=ORIENTED_EDGE('',*,*,#434,.F.);
#588=ORIENTED_EDGE('',*,*,#439,.F.);
#589=ORIENTED_EDGE('',*,*,#441,.F.);
#590=ORIENTED_EDGE('',*,*,#430,.T.);
#591=ORIENTED_EDGE('',*,*,#442,.F.);
#592=ORIENTED_EDGE('',*,*,#443,.F.);
#593=ORIENTED_EDGE('',*,*,#444,.T.);
#594=ORIENTED_EDGE('',*,*,#445,.T.);
#595=ORIENTED_EDGE('',*,*,#446,.F.);
#596=ORIENTED_EDGE('',*,*,#447,.F.);
#597=ORIENTED_EDGE('',*,*,#448,.T.);
#598=ORIENTED_EDGE('',*,*,#449,.T.);
#599=ORIENTED_EDGE('',*,*,#444,.F.);
#600=ORIENTED_EDGE('',*,*,#450,.F.);
#601=ORIENTED_EDGE('',*,*,#406,.T.);
#602=ORIENTED_EDGE('',*,*,#451,.T.);
#603=ORIENTED_EDGE('',*,*,#448,.F.);
#604=ORIENTED_EDGE('',*,*,#396,.T.);
#605=ORIENTED_EDGE('',*,*,#452,.F.);
#606=ORIENTED_EDGE('',*,*,#446,.T.);
#607=ORIENTED_EDGE('',*,*,#453,.T.);
#608=ORIENTED_EDGE('',*,*,#453,.F.);
#609=ORIENTED_EDGE('',*,*,#445,.F.);
#610=ORIENTED_EDGE('',*,*,#449,.F.);
#611=ORIENTED_EDGE('',*,*,#451,.F.);
#612=ORIENTED_EDGE('',*,*,#405,.F.);
#613=ORIENTED_EDGE('',*,*,#394,.F.);
#614=ORIENTED_EDGE('',*,*,#399,.F.);
#615=ORIENTED_EDGE('',*,*,#397,.F.);
#616=ORIENTED_EDGE('',*,*,#410,.T.);
#617=ORIENTED_EDGE('',*,*,#395,.T.);
#618=ORIENTED_EDGE('',*,*,#404,.F.);
#619=ORIENTED_EDGE('',*,*,#422,.F.);
#620=ORIENTED_EDGE('',*,*,#431,.F.);
#621=ORIENTED_EDGE('',*,*,#441,.T.);
#622=ORIENTED_EDGE('',*,*,#438,.F.);
#623=ORIENTED_EDGE('',*,*,#415,.F.);
#624=ORIENTED_EDGE('',*,*,#400,.F.);
#625=ORIENTED_EDGE('',*,*,#392,.T.);
#626=ORIENTED_EDGE('',*,*,#407,.T.);
#627=ORIENTED_EDGE('',*,*,#450,.T.);
#628=ORIENTED_EDGE('',*,*,#447,.T.);
#629=ORIENTED_EDGE('',*,*,#443,.T.);
#630=ORIENTED_EDGE('',*,*,#452,.T.);
#631=ORIENTED_EDGE('',*,*,#374,.T.);
#632=ORIENTED_EDGE('',*,*,#454,.T.);
#633=ORIENTED_EDGE('',*,*,#360,.F.);
#634=ORIENTED_EDGE('',*,*,#386,.F.);
#635=ORIENTED_EDGE('',*,*,#373,.F.);
#636=ORIENTED_EDGE('',*,*,#376,.F.);
#637=ORIENTED_EDGE('',*,*,#363,.F.);
#638=ORIENTED_EDGE('',*,*,#368,.F.);
#639=ORIENTED_EDGE('',*,*,#390,.F.);
#640=ORIENTED_EDGE('',*,*,#370,.F.);
#641=ORIENTED_EDGE('',*,*,#361,.F.);
#642=ORIENTED_EDGE('',*,*,#454,.F.);
#643=ORIENTED_EDGE('',*,*,#413,.T.);
#644=ORIENTED_EDGE('',*,*,#425,.F.);
#645=ORIENTED_EDGE('',*,*,#383,.T.);
#646=ORIENTED_EDGE('',*,*,#435,.F.);
#647=ORIENTED_EDGE('',*,*,#442,.T.);
#648=ORIENTED_EDGE('',*,*,#429,.F.);
#649=CYLINDRICAL_SURFACE('',#706,2.15);
#650=CYLINDRICAL_SURFACE('',#709,2.15);
#651=CYLINDRICAL_SURFACE('',#714,3.9);
#652=CYLINDRICAL_SURFACE('',#724,3.9);
#653=CYLINDRICAL_SURFACE('',#741,6.);
#654=CYLINDRICAL_SURFACE('',#742,6.);
#655=CYLINDRICAL_SURFACE('',#749,2.15);
#656=CYLINDRICAL_SURFACE('',#753,3.9);
#657=ADVANCED_FACE('',(#46),#649,.F.);
#658=ADVANCED_FACE('',(#47),#650,.F.);
#659=ADVANCED_FACE('',(#48),#21,.F.);
#660=ADVANCED_FACE('',(#49),#22,.F.);
#661=ADVANCED_FACE('',(#50),#651,.F.);
#662=ADVANCED_FACE('',(#51),#23,.F.);
#663=ADVANCED_FACE('',(#52),#24,.T.);
#664=ADVANCED_FACE('',(#53),#25,.T.);
#665=ADVANCED_FACE('',(#54),#26,.F.);
#666=ADVANCED_FACE('',(#55),#27,.F.);
#667=ADVANCED_FACE('',(#56),#28,.T.);
#668=ADVANCED_FACE('',(#57),#652,.F.);
#669=ADVANCED_FACE('',(#58),#19,.F.);
#670=ADVANCED_FACE('',(#59),#20,.F.);
#671=ADVANCED_FACE('',(#60),#29,.T.);
#672=ADVANCED_FACE('',(#61,#15),#30,.T.);
#673=ADVANCED_FACE('',(#62),#31,.T.);
#674=ADVANCED_FACE('',(#63),#32,.T.);
#675=ADVANCED_FACE('',(#64,#16),#33,.T.);
#676=ADVANCED_FACE('',(#65),#34,.T.);
#677=ADVANCED_FACE('',(#66),#35,.T.);
#678=ADVANCED_FACE('',(#67),#653,.F.);
#679=ADVANCED_FACE('',(#68),#654,.T.);
#680=ADVANCED_FACE('',(#69),#36,.T.);
#681=ADVANCED_FACE('',(#70),#37,.T.);
#682=ADVANCED_FACE('',(#71),#38,.T.);
#683=ADVANCED_FACE('',(#72),#39,.F.);
#684=ADVANCED_FACE('',(#73),#655,.F.);
#685=ADVANCED_FACE('',(#74),#40,.F.);
#686=ADVANCED_FACE('',(#75),#656,.F.);
#687=ADVANCED_FACE('',(#76,#17),#41,.T.);
#688=ADVANCED_FACE('',(#77),#42,.T.);
#689=ADVANCED_FACE('',(#78),#43,.F.);
#690=ADVANCED_FACE('',(#79,#18),#44,.T.);
#691=ADVANCED_FACE('',(#80),#45,.T.);
#692=CLOSED_SHELL('',(#657,#658,#659,#660,#661,#662,#663,#664,#665,#666,
#667,#668,#669,#670,#671,#672,#673,#674,#675,#676,#677,#678,#679,#680,#681,
#682,#683,#684,#685,#686,#687,#688,#689,#690,#691));
#693=DERIVED_UNIT_ELEMENT(#695,1.);
#694=DERIVED_UNIT_ELEMENT(#1152,-3.);
#695=(
MASS_UNIT()
NAMED_UNIT(*)
SI_UNIT(.KILO.,.GRAM.)
);
#696=DERIVED_UNIT((#693,#694));
#697=MEASURE_REPRESENTATION_ITEM('density measure',
POSITIVE_RATIO_MEASURE(7850.),#696);
#698=PROPERTY_DEFINITION_REPRESENTATION(#703,#700);
#699=PROPERTY_DEFINITION_REPRESENTATION(#704,#701);
#700=REPRESENTATION('material name',(#702),#1149);
#701=REPRESENTATION('density',(#697),#1149);
#702=DESCRIPTIVE_REPRESENTATION_ITEM('Steel','Steel');
#703=PROPERTY_DEFINITION('material property','material name',#1159);
#704=PROPERTY_DEFINITION('material property','density of part',#1159);
#705=AXIS2_PLACEMENT_3D('',#950,#761,#762);
#706=AXIS2_PLACEMENT_3D('',#951,#763,#764);
#707=AXIS2_PLACEMENT_3D('',#956,#766,#767);
#708=AXIS2_PLACEMENT_3D('',#959,#769,#770);
#709=AXIS2_PLACEMENT_3D('',#960,#771,#772);
#710=AXIS2_PLACEMENT_3D('',#965,#774,#775);
#711=AXIS2_PLACEMENT_3D('',#968,#777,#778);
#712=AXIS2_PLACEMENT_3D('',#969,#779,#780);
#713=AXIS2_PLACEMENT_3D('',#975,#784,#785);
#714=AXIS2_PLACEMENT_3D('',#981,#789,#790);
#715=AXIS2_PLACEMENT_3D('',#986,#792,#793);
#716=AXIS2_PLACEMENT_3D('',#989,#795,#796);
#717=AXIS2_PLACEMENT_3D('',#990,#797,#798);
#718=AXIS2_PLACEMENT_3D('',#993,#801,#802);
#719=AXIS2_PLACEMENT_3D('',#1001,#806,#807);
#720=AXIS2_PLACEMENT_3D('',#1010,#813,#814);
#721=AXIS2_PLACEMENT_3D('',#1017,#819,#820);
#722=AXIS2_PLACEMENT_3D('',#1026,#825,#826);
#723=AXIS2_PLACEMENT_3D('',#1035,#831,#832);
#724=AXIS2_PLACEMENT_3D('',#1046,#839,#840);
#725=AXIS2_PLACEMENT_3D('',#1048,#841,#842);
#726=AXIS2_PLACEMENT_3D('',#1051,#844,#845);
#727=AXIS2_PLACEMENT_3D('',#1052,#846,#847);
#728=AXIS2_PLACEMENT_3D('',#1054,#848,#849);
#729=AXIS2_PLACEMENT_3D('',#1057,#851,#852);
#730=AXIS2_PLACEMENT_3D('',#1058,#853,#854);
#731=AXIS2_PLACEMENT_3D('',#1060,#855,#856);
#732=AXIS2_PLACEMENT_3D('',#1063,#858,#859);
#733=AXIS2_PLACEMENT_3D('',#1064,#860,#861);
#734=AXIS2_PLACEMENT_3D('',#1070,#865,#866);
#735=AXIS2_PLACEMENT_3D('',#1079,#872,#873);
#736=AXIS2_PLACEMENT_3D('',#1083,#876,#877);
#737=AXIS2_PLACEMENT_3D('',#1087,#880,#881);
#738=AXIS2_PLACEMENT_3D('',#1089,#882,#883);
#739=AXIS2_PLACEMENT_3D('',#1098,#889,#890);
#740=AXIS2_PLACEMENT_3D('',#1100,#892,#893);
#741=AXIS2_PLACEMENT_3D('',#1102,#895,#896);
#742=AXIS2_PLACEMENT_3D('',#1103,#897,#898);
#743=AXIS2_PLACEMENT_3D('',#1106,#899,#900);
#744=AXIS2_PLACEMENT_3D('',#1109,#902,#903);
#745=AXIS2_PLACEMENT_3D('',#1111,#905,#906);
#746=AXIS2_PLACEMENT_3D('',#1116,#910,#911);
#747=AXIS2_PLACEMENT_3D('',#1117,#912,#913);
#748=AXIS2_PLACEMENT_3D('',#1120,#916,#917);
#749=AXIS2_PLACEMENT_3D('',#1129,#922,#923);
#750=AXIS2_PLACEMENT_3D('',#1131,#924,#925);
#751=AXIS2_PLACEMENT_3D('',#1134,#927,#928);
#752=AXIS2_PLACEMENT_3D('',#1135,#929,#930);
#753=AXIS2_PLACEMENT_3D('',#1138,#933,#934);
#754=AXIS2_PLACEMENT_3D('',#1139,#935,#936);
#755=AXIS2_PLACEMENT_3D('',#1140,#937,#938);
#756=AXIS2_PLACEMENT_3D('',#1141,#939,#940);
#757=AXIS2_PLACEMENT_3D('',#1142,#941,#942);
#758=AXIS2_PLACEMENT_3D('',#1143,#943,#944);
#759=AXIS2_PLACEMENT_3D('',#1145,#946,#947);
#760=AXIS2_PLACEMENT_3D('',#1146,#948,#949);
#761=DIRECTION('axis',(0.,0.,1.));
#762=DIRECTION('refdir',(1.,0.,0.));
#763=DIRECTION('center_axis',(2.22044604925031E-16,1.,-2.22044604925031E-16));
#764=DIRECTION('ref_axis',(1.,-2.22044604925031E-16,3.44509284839767E-16));
#765=DIRECTION('',(-2.22044604925031E-16,-1.,2.22044604925031E-16));
#766=DIRECTION('center_axis',(2.22044604925031E-16,1.,-2.22044604925031E-16));
#767=DIRECTION('ref_axis',(1.,-2.22044604925031E-16,3.44509284839767E-16));
#768=DIRECTION('',(2.22044604925031E-16,1.,-2.22044604925031E-16));
#769=DIRECTION('center_axis',(2.22044604925031E-16,1.,-2.22044604925031E-16));
#770=DIRECTION('ref_axis',(1.,-2.22044604925031E-16,3.44509284839767E-16));
#771=DIRECTION('center_axis',(2.22044604925031E-16,1.,-2.22044604925031E-16));
#772=DIRECTION('ref_axis',(1.,-2.22044604925031E-16,3.44509284839767E-16));
#773=DIRECTION('',(2.22044604925031E-16,1.,-2.22044604925031E-16));
#774=DIRECTION('center_axis',(2.22044604925031E-16,1.,-2.22044604925031E-16));
#775=DIRECTION('ref_axis',(1.,-2.22044604925031E-16,3.44509284839767E-16));
#776=DIRECTION('',(2.22044604925031E-16,1.,-2.22044604925031E-16));
#777=DIRECTION('center_axis',(2.22044604925031E-16,1.,-2.22044604925031E-16));
#778=DIRECTION('ref_axis',(1.,-2.22044604925031E-16,3.44509284839767E-16));
#779=DIRECTION('center_axis',(0.,0.,1.));
#780=DIRECTION('ref_axis',(1.,0.,0.));
#781=DIRECTION('',(1.,-2.22044604925031E-16,0.));
#782=DIRECTION('',(-2.22044604925031E-16,-1.,0.));
#783=DIRECTION('',(1.,0.,0.));
#784=DIRECTION('center_axis',(0.,0.,-1.));
#785=DIRECTION('ref_axis',(-1.,0.,0.));
#786=DIRECTION('',(-1.,2.22044604925031E-16,0.));
#787=DIRECTION('',(-1.,0.,0.));
#788=DIRECTION('',(2.22044604925031E-16,1.,0.));
#789=DIRECTION('center_axis',(2.22044604925031E-16,1.,-2.22044604925031E-16));
#790=DIRECTION('ref_axis',(1.,-2.22044604925031E-16,3.44509284839767E-16));
#791=DIRECTION('',(2.22044604925031E-16,1.,-2.22044604925031E-16));
#792=DIRECTION('center_axis',(2.22044604925031E-16,1.,-2.22044604925031E-16));
#793=DIRECTION('ref_axis',(1.,-2.22044604925031E-16,3.44509284839767E-16));
#794=DIRECTION('',(2.22044604925031E-16,1.,-2.22044604925031E-16));
#795=DIRECTION('center_axis',(2.22044604925031E-16,1.,-2.22044604925031E-16));
#796=DIRECTION('ref_axis',(1.,-2.22044604925031E-16,3.44509284839767E-16));
#797=DIRECTION('center_axis',(-0.111978474189793,2.4551230088435E-16,0.99371063258784));
#798=DIRECTION('ref_axis',(0.99371063258784,-1.95783868761189E-16,0.111978474189793));
#799=DIRECTION('',(0.99371063258784,-1.95783868761189E-16,0.111978474189793));
#800=DIRECTION('',(0.99371063258784,-1.95783868761189E-16,0.111978474189793));
#801=DIRECTION('center_axis',(-2.22044604925031E-16,-1.,2.22044604925031E-16));
#802=DIRECTION('ref_axis',(1.,-2.22044604925031E-16,3.44509284839767E-16));
#803=DIRECTION('',(-3.44509284839766E-16,2.22044604925031E-16,1.));
#804=DIRECTION('',(-0.707106781186547,3.14018491736755E-16,0.707106781186548));
#805=DIRECTION('',(-1.,2.22044604925031E-16,-3.44509284839767E-16));
#806=DIRECTION('center_axis',(-2.22044604925031E-16,-1.,2.22044604925031E-16));
#807=DIRECTION('ref_axis',(0.707106781186547,1.30841038223648E-16,0.707106781186548));
#808=DIRECTION('',(3.44509284839766E-16,-2.22044604925031E-16,-1.));
#809=DIRECTION('',(1.,-2.22044604925031E-16,3.44509284839767E-16));
#810=DIRECTION('',(0.707106781186546,5.66993775627602E-31,0.707106781186549));
#811=DIRECTION('',(-3.44509284839766E-16,2.22044604925031E-16,1.));
#812=DIRECTION('',(-0.993598073566128,2.45708106855164E-16,0.112972864908697));
#813=DIRECTION('center_axis',(-1.,2.22044604925031E-16,-3.44509284839767E-16));
#814=DIRECTION('ref_axis',(-3.44509284839766E-16,2.22044604925031E-16,1.));
#815=DIRECTION('',(-2.22044604925031E-16,-1.,2.22044604925031E-16));
#816=DIRECTION('',(-3.44509284839766E-16,2.22044604925031E-16,1.));
#817=DIRECTION('',(2.22044604925031E-16,1.,-2.22044604925031E-16));
#818=DIRECTION('',(-3.44509284839767E-16,-5.31196308465165E-33,1.));
#819=DIRECTION('center_axis',(0.,-1.,0.));
#820=DIRECTION('ref_axis',(-1.,0.,0.));
#821=DIRECTION('',(0.,0.,-1.));
#822=DIRECTION('',(-1.,0.,0.));
#823=DIRECTION('',(0.,0.,1.));
#824=DIRECTION('',(-1.,0.,0.));
#825=DIRECTION('center_axis',(0.,1.,0.));
#826=DIRECTION('ref_axis',(1.,0.,0.));
#827=DIRECTION('',(1.,0.,0.));
#828=DIRECTION('',(0.,0.,1.));
#829=DIRECTION('',(1.,0.,0.));
#830=DIRECTION('',(0.,0.,-1.));
#831=DIRECTION('center_axis',(1.,0.,0.));
#832=DIRECTION('ref_axis',(0.,0.,-1.));
#833=DIRECTION('',(0.,-1.,0.));
#834=DIRECTION('',(0.,-1.,0.));
#835=DIRECTION('',(0.,0.,1.));
#836=DIRECTION('',(0.,1.,0.));
#837=DIRECTION('',(0.,0.,-1.));
#838=DIRECTION('',(0.,-1.,0.));
#839=DIRECTION('center_axis',(0.,0.,-1.));
#840=DIRECTION('ref_axis',(1.,0.,0.));
#841=DIRECTION('center_axis',(0.,0.,-1.));
#842=DIRECTION('ref_axis',(1.,0.,0.));
#843=DIRECTION('',(0.,0.,-1.));
#844=DIRECTION('center_axis',(0.,0.,-1.));
#845=DIRECTION('ref_axis',(1.,0.,0.));
#846=DIRECTION('center_axis',(0.,0.,-1.));
#847=DIRECTION('ref_axis',(-1.,0.,0.));
#848=DIRECTION('center_axis',(0.,0.,1.));
#849=DIRECTION('ref_axis',(-1.,0.,0.));
#850=DIRECTION('',(-0.707106781186547,-8.65956056235493E-17,0.707106781186548));
#851=DIRECTION('center_axis',(0.,0.,-1.));
#852=DIRECTION('ref_axis',(-1.,0.,0.));
#853=DIRECTION('center_axis',(0.,1.,0.));
#854=DIRECTION('ref_axis',(0.,0.,1.));
#855=DIRECTION('center_axis',(0.,-1.,0.));
#856=DIRECTION('ref_axis',(0.,0.,1.));
#857=DIRECTION('',(-8.65956056235493E-17,-0.707106781186548,0.707106781186548));
#858=DIRECTION('center_axis',(2.22044604925031E-16,1.,-2.22044604925031E-16));
#859=DIRECTION('ref_axis',(0.,0.,1.));
#860=DIRECTION('center_axis',(0.707106781186548,-0.707106781186548,0.));
#861=DIRECTION('ref_axis',(0.,0.,-1.));
#862=DIRECTION('',(0.707106781186548,0.707106781186548,0.));
#863=DIRECTION('',(-0.707106781186548,-0.707106781186548,0.));
#864=DIRECTION('',(0.,0.,-1.));
#865=DIRECTION('center_axis',(0.,0.,-1.));
#866=DIRECTION('ref_axis',(-1.,0.,0.));
#867=DIRECTION('',(1.,0.,0.));
#868=DIRECTION('',(0.,-1.,0.));
#869=DIRECTION('',(0.,-1.,0.));
#870=DIRECTION('',(-1.,0.,0.));
#871=DIRECTION('',(-0.707106781186548,0.707106781186547,0.));
#872=DIRECTION('center_axis',(0.707106781186547,0.707106781186548,0.));
#873=DIRECTION('ref_axis',(0.,0.,-1.));
#874=DIRECTION('',(0.707106781186548,-0.707106781186547,0.));
#875=DIRECTION('',(0.,0.,1.));
#876=DIRECTION('center_axis',(-0.707106781186549,3.14018491736755E-16,0.707106781186546));
#877=DIRECTION('ref_axis',(0.707106781186546,0.,0.707106781186549));
#878=DIRECTION('',(-0.707106781186546,0.,-0.707106781186549));
#879=DIRECTION('',(2.22044604925031E-16,1.,-2.22044604925031E-16));
#880=DIRECTION('center_axis',(0.,1.,0.));
#881=DIRECTION('ref_axis',(1.,0.,0.));
#882=DIRECTION('center_axis',(0.,1.,0.));
#883=DIRECTION('ref_axis',(0.707106781186547,1.30841038223648E-16,0.707106781186548));
#884=DIRECTION('',(1.,-2.22044604925031E-16,3.44509284839767E-16));
#885=DIRECTION('',(0.707106781186547,0.,-0.707106781186548));
#886=DIRECTION('',(1.,-2.22044604925031E-16,3.44509284839767E-16));
#887=DIRECTION('',(0.,0.,1.));
#888=DIRECTION('',(1.,0.,0.));
#889=DIRECTION('center_axis',(-0.707106781186548,8.71576399210525E-32,-0.707106781186547));
#890=DIRECTION('ref_axis',(-0.707106781186547,0.,0.707106781186548));
#891=DIRECTION('',(-2.22044604925031E-16,-1.,2.22044604925031E-16));
#892=DIRECTION('center_axis',(3.44509284839766E-16,-2.22044604925031E-16,
-1.));
#893=DIRECTION('ref_axis',(-1.,2.22044604925031E-16,-3.44509284839767E-16));
#894=DIRECTION('',(0.,1.,-2.22044604925031E-16));
#895=DIRECTION('center_axis',(0.,1.,-2.22044604925031E-16));
#896=DIRECTION('ref_axis',(0.707106781186547,1.30841038223648E-16,0.707106781186548));
#897=DIRECTION('center_axis',(1.,0.,3.44509284839766E-16));
#898=DIRECTION('ref_axis',(0.,-0.707106781186547,0.707106781186548));
#899=DIRECTION('center_axis',(-1.,0.,0.));
#900=DIRECTION('ref_axis',(0.,-0.707106781186547,0.707106781186548));
#901=DIRECTION('',(-1.,0.,-3.44509284839766E-16));
#902=DIRECTION('center_axis',(1.,0.,0.));
#903=DIRECTION('ref_axis',(0.,-0.707106781186547,0.707106781186548));
#904=DIRECTION('',(1.,0.,3.44509284839766E-16));
#905=DIRECTION('center_axis',(0.,-1.,0.));
#906=DIRECTION('ref_axis',(-1.,0.,0.));
#907=DIRECTION('',(-1.,0.,0.));
#908=DIRECTION('',(0.,0.,1.));
#909=DIRECTION('',(0.,0.,1.));
#910=DIRECTION('center_axis',(-1.,0.,0.));
#911=DIRECTION('ref_axis',(0.,0.,1.));
#912=DIRECTION('center_axis',(1.,0.,0.));
#913=DIRECTION('ref_axis',(0.,1.,0.));
#914=DIRECTION('',(0.,-1.,0.));
#915=DIRECTION('',(0.,1.,0.));
#916=DIRECTION('center_axis',(-0.111978474189793,0.99371063258784,0.));
#917=DIRECTION('ref_axis',(0.99371063258784,0.111978474189793,0.));
#918=DIRECTION('',(0.99371063258784,0.111978474189793,0.));
#919=DIRECTION('',(0.,0.,-1.));
#920=DIRECTION('',(0.99371063258784,0.111978474189793,0.));
#921=DIRECTION('',(0.,0.,-1.));
#922=DIRECTION('center_axis',(0.,0.,-1.));
#923=DIRECTION('ref_axis',(-0.999993191369885,-0.00369015092805469,0.));
#924=DIRECTION('center_axis',(0.,0.,-1.));
#925=DIRECTION('ref_axis',(1.,0.,0.));
#926=DIRECTION('',(0.,0.,-1.));
#927=DIRECTION('center_axis',(0.,0.,-1.));
#928=DIRECTION('ref_axis',(1.,0.,0.));
#929=DIRECTION('center_axis',(-0.112972864908698,-0.993598073566128,0.));
#930=DIRECTION('ref_axis',(-0.993598073566128,0.112972864908698,0.));
#931=DIRECTION('',(-0.993598073566128,0.112972864908698,0.));
#932=DIRECTION('',(-0.993598073566128,0.112972864908698,0.));
#933=DIRECTION('center_axis',(0.,0.,-1.));
#934=DIRECTION('ref_axis',(1.,0.,0.));
#935=DIRECTION('center_axis',(0.,0.,-1.));
#936=DIRECTION('ref_axis',(1.,0.,0.));
#937=DIRECTION('center_axis',(0.,0.,-1.));
#938=DIRECTION('ref_axis',(1.,0.,0.));
#939=DIRECTION('center_axis',(0.,0.,1.));
#940=DIRECTION('ref_axis',(1.,0.,0.));
#941=DIRECTION('center_axis',(0.,0.,1.));
#942=DIRECTION('ref_axis',(1.,0.,0.));
#943=DIRECTION('center_axis',(-0.112972864908697,-1.95538076543362E-16,
-0.993598073566128));
#944=DIRECTION('ref_axis',(-0.993598073566128,2.45708106855164E-16,0.112972864908697));
#945=DIRECTION('',(-0.993598073566128,2.45708106855164E-16,0.112972864908697));
#946=DIRECTION('center_axis',(-2.22044604925031E-16,-1.,2.22044604925031E-16));
#947=DIRECTION('ref_axis',(1.,-2.22044604925031E-16,3.44509284839767E-16));
#948=DIRECTION('center_axis',(-3.44509284839766E-16,2.22044604925031E-16,
1.));
#949=DIRECTION('ref_axis',(1.,-2.22044604925031E-16,3.44509284839767E-16));
#950=CARTESIAN_POINT('',(0.,0.,0.));
#951=CARTESIAN_POINT('Origin',(-40.450219536443,0.999999925494192,6.99535002671167));
#952=CARTESIAN_POINT('',(-42.5423783405868,4.49999992549419,6.50000011175871));
#953=CARTESIAN_POINT('',(-42.5423783405868,0.999999925494189,6.50000011175871));
#954=CARTESIAN_POINT('',(-42.5423783405868,0.999999925494192,6.50000011175871));
#955=CARTESIAN_POINT('',(-40.6751989550026,0.999999925494191,4.85715352937459));
#956=CARTESIAN_POINT('Origin',(-40.450219536443,0.999999925494192,6.99535002671167));
#957=CARTESIAN_POINT('',(-40.6751989550026,4.49999992549419,4.85715352937459));
#958=CARTESIAN_POINT('',(-40.6751989550026,0.999999925494191,4.85715352937459));
#959=CARTESIAN_POINT('Origin',(-40.450219536443,4.49999992549419,6.99535002671167));
#960=CARTESIAN_POINT('Origin',(-40.450219536443,0.999999925494192,6.99535002671167));
#961=CARTESIAN_POINT('',(-42.5401545334375,0.999999925494189,7.50000011175871));
#962=CARTESIAN_POINT('',(-42.5401545334375,4.49999992549419,7.50000011175871));
#963=CARTESIAN_POINT('',(-42.5401545334375,0.999999925494192,7.50000011175871));
#964=CARTESIAN_POINT('',(-40.6909732559511,4.49999992549419,9.13182788677553));
#965=CARTESIAN_POINT('Origin',(-40.450219536443,4.49999992549419,6.99535002671167));
#966=CARTESIAN_POINT('',(-40.6909732559511,0.999999925494193,9.13182788677553));
#967=CARTESIAN_POINT('',(-40.6909732559511,0.999999925494193,9.13182788677553));
#968=CARTESIAN_POINT('Origin',(-40.450219536443,0.999999925494192,6.99535002671167));
#969=CARTESIAN_POINT('Origin',(-43.0000006407499,0.999999925494189,7.50000011175871));
#970=CARTESIAN_POINT('',(-43.0000006407499,0.999999925494189,7.50000011175871));
#971=CARTESIAN_POINT('',(-37.5000005364418,0.999999925494191,7.50000011175871));
#972=CARTESIAN_POINT('',(-43.0000006407499,4.49999992549419,7.50000011175871));
#973=CARTESIAN_POINT('',(-43.0000005960464,0.99999992549419,7.50000011175871));
#974=CARTESIAN_POINT('',(-43.0000006407499,4.49999992549419,7.50000011175871));
#975=CARTESIAN_POINT('Origin',(-42.5423783405868,0.999999925494189,6.50000011175871));
#976=CARTESIAN_POINT('',(-43.0000006407499,0.999999925494189,6.50000011175871));
#977=CARTESIAN_POINT('',(-37.2711893863602,0.999999925494191,6.50000011175871));
#978=CARTESIAN_POINT('',(-43.0000006407499,4.49999992549419,6.50000011175871));
#979=CARTESIAN_POINT('',(-41.7155287128858,4.49999992549419,6.50000011175871));
#980=CARTESIAN_POINT('',(-43.0000005960464,0.99999992549419,6.50000011175871));
#981=CARTESIAN_POINT('Origin',(-25.0000003278255,0.999999925494188,6.9999997764826));
#982=CARTESIAN_POINT('',(-25.0000003278255,0.99999992549419,10.8999997764826));
#983=CARTESIAN_POINT('',(-25.0000003278255,4.49999992549419,10.8999997764826));
#984=CARTESIAN_POINT('',(-25.0000003278255,0.99999992549419,10.8999997764826));
#985=CARTESIAN_POINT('',(-25.4405945009695,4.49999992549419,3.12496728957469));
#986=CARTESIAN_POINT('Origin',(-25.0000003278255,4.49999992549419,6.9999997764826));
#987=CARTESIAN_POINT('',(-25.4405945009695,0.999999925494188,3.12496728957469));
#988=CARTESIAN_POINT('',(-25.4405945009695,0.999999925494188,3.12496728957469));
#989=CARTESIAN_POINT('Origin',(-25.0000003278255,0.999999925494188,6.9999997764826));
#990=CARTESIAN_POINT('Origin',(-40.6909732559511,0.999999925494193,9.13182788677553));
#991=CARTESIAN_POINT('',(-25.0000003278255,4.49999992549419,10.8999997764826));
#992=CARTESIAN_POINT('',(-36.5185844088274,0.999999925494192,9.60200272591425));
#993=CARTESIAN_POINT('Origin',(-32.0000004321337,0.99999992549419,6.99999977648259));
#994=CARTESIAN_POINT('',(-43.0000005960464,0.999999925494191,4.99999970197679));
#995=CARTESIAN_POINT('',(-43.0000005960464,0.999999925494191,1.99999970197678));
#996=CARTESIAN_POINT('',(-40.0000005960464,0.99999992549419,1.99999970197678));
#997=CARTESIAN_POINT('',(-40.0000005736947,0.99999992549419,1.99999967962504));
#998=CARTESIAN_POINT('',(-26.0000002682209,0.999999925494187,1.99999970197679));
#999=CARTESIAN_POINT('',(-21.0000002682209,0.999999925494186,1.99999970197679));
#1000=CARTESIAN_POINT('',(-20.0000002682209,0.999999925494184,-4.00000029802321));
#1001=CARTESIAN_POINT('Origin',(-26.0000002682209,0.999999925494187,-4.00000029802321));
#1002=CARTESIAN_POINT('',(-20.0000002682209,0.999999925494188,11.9999998509884));
#1003=CARTESIAN_POINT('',(-20.0000002682209,0.999999925494188,11.9999998509884));
#1004=CARTESIAN_POINT('',(-40.0000005960465,0.999999925494192,11.9999998509884));
#1005=CARTESIAN_POINT('',(-43.0000005960465,0.999999925494193,11.9999998509884));
#1006=CARTESIAN_POINT('',(-43.0000005960464,0.999999925494192,8.9999998509884));
#1007=CARTESIAN_POINT('',(-40.0000005736947,0.999999925494193,11.9999998733401));
#1008=CARTESIAN_POINT('',(-43.0000005960464,0.999999925494191,1.99999970197678));
#1009=CARTESIAN_POINT('',(-28.895924513738,0.999999925494188,3.51784096871382));
#1010=CARTESIAN_POINT('Origin',(-43.0000005960464,0.999999925494191,1.99999970197678));
#1011=CARTESIAN_POINT('',(-43.0000005960464,4.99999992549419,8.9999998509884));
#1012=CARTESIAN_POINT('',(-43.0000005960464,0.999999925494192,8.9999998509884));
#1013=CARTESIAN_POINT('',(-43.0000005960464,4.99999992549419,4.99999970197678));
#1014=CARTESIAN_POINT('',(-43.0000005960464,4.99999992549419,1.99999970197678));
#1015=CARTESIAN_POINT('',(-43.0000005960464,0.999999925494192,4.99999970197679));
#1016=CARTESIAN_POINT('',(-43.0000005960464,4.49999992549419,4.49999990686775));
#1017=CARTESIAN_POINT('Origin',(5.00000007450581,-1.00000001490116,0.));
#1018=CARTESIAN_POINT('',(3.76961536104119,-1.00000001490116,0.));
#1019=CARTESIAN_POINT('',(3.76961536104119,-1.00000001490116,-3.5));
#1020=CARTESIAN_POINT('',(3.76961536104119,-1.00000001490116,0.));
#1021=CARTESIAN_POINT('',(5.00000007450581,-1.00000001490116,0.));
#1022=CARTESIAN_POINT('',(-1.00000001490116,-1.00000001490116,0.));
#1023=CARTESIAN_POINT('',(5.00000007450581,-1.00000001490116,-3.5));
#1024=CARTESIAN_POINT('',(5.00000005960464,-1.00000001490116,0.));
#1025=CARTESIAN_POINT('',(5.00000007450581,-1.00000001490116,-3.5));
#1026=CARTESIAN_POINT('Origin',(3.7395536094304,1.107130887563,0.));
#1027=CARTESIAN_POINT('',(3.7395536094304,1.107130887563,0.));
#1028=CARTESIAN_POINT('',(5.00000007450581,1.107130887563,0.));
#1029=CARTESIAN_POINT('',(-1.63022324743886,1.107130887563,0.));
#1030=CARTESIAN_POINT('',(3.7395536094304,1.107130887563,-3.5));
#1031=CARTESIAN_POINT('',(3.7395536094304,1.107130887563,0.));
#1032=CARTESIAN_POINT('',(5.00000007450581,1.107130887563,-3.5));
#1033=CARTESIAN_POINT('',(3.7395536094304,1.107130887563,-3.5));
#1034=CARTESIAN_POINT('',(5.00000005960464,1.107130887563,0.));
#1035=CARTESIAN_POINT('Origin',(5.00000005960464,5.00000007450581,0.));
#1036=CARTESIAN_POINT('',(5.00000005960464,2.52678275541836,-3.5));
#1037=CARTESIAN_POINT('',(5.00000005960464,-2.00000007450581,0.));
#1038=CARTESIAN_POINT('',(5.00000005960464,5.00000007450581,0.));
#1039=CARTESIAN_POINT('',(5.00000005960464,-2.00000007450581,-4.));
#1040=CARTESIAN_POINT('',(5.00000005960464,-2.00000007450581,0.));
#1041=CARTESIAN_POINT('',(5.00000005960464,2.00000007450581,-4.));
#1042=CARTESIAN_POINT('',(5.00000005960464,5.00000007450581,-4.));
#1043=CARTESIAN_POINT('',(5.00000005960464,2.00000007450581,0.));
#1044=CARTESIAN_POINT('',(5.00000005960464,2.00000007450581,0.));
#1045=CARTESIAN_POINT('',(5.00000005960464,5.00000007450581,0.));
#1046=CARTESIAN_POINT('Origin',(0.,0.,0.));
#1047=CARTESIAN_POINT('',(-0.440594173143922,-3.8750324869079,-3.5));
#1048=CARTESIAN_POINT('Origin',(0.,0.,-3.5));
#1049=CARTESIAN_POINT('',(-0.440594173143922,-3.8750324869079,0.));
#1050=CARTESIAN_POINT('',(-0.440594173143922,-3.8750324869079,0.));
#1051=CARTESIAN_POINT('Origin',(0.,0.,0.));
#1052=CARTESIAN_POINT('Origin',(0.,0.,-3.6));
#1053=CARTESIAN_POINT('',(1.7,2.0818995585505E-16,-4.));
#1054=CARTESIAN_POINT('Origin',(0.,0.,-4.));
#1055=CARTESIAN_POINT('',(1.2,-1.46957615897682E-16,-3.5));
#1056=CARTESIAN_POINT('',(1.3,1.59204083889156E-16,-3.6));
#1057=CARTESIAN_POINT('Origin',(0.,0.,-3.5));
#1058=CARTESIAN_POINT('Origin',(-25.0000003278255,4.72500007450581,6.9999997764826));
#1059=CARTESIAN_POINT('',(-25.0000003278255,5.00000007450581,5.2999997764826));
#1060=CARTESIAN_POINT('Origin',(-25.0000003278255,5.00000007450581,6.9999997764826));
#1061=CARTESIAN_POINT('',(-25.0000003278255,4.49999992549419,5.79999992549422));
#1062=CARTESIAN_POINT('',(-25.0000003278255,4.72500007450581,5.5749997764826));
#1063=CARTESIAN_POINT('Origin',(-25.0000003278255,4.49999992549419,6.9999997764826));
#1064=CARTESIAN_POINT('Origin',(3.50000005960464,-3.50000007450581,0.));
#1065=CARTESIAN_POINT('',(2.00000005960464,-5.00000007450581,-4.));
#1066=CARTESIAN_POINT('',(1.7500000372529,-5.25000009685755,-4.));
#1067=CARTESIAN_POINT('',(2.00000005960464,-5.00000007450581,0.));
#1068=CARTESIAN_POINT('',(1.7500000372529,-5.25000009685755,0.));
#1069=CARTESIAN_POINT('',(2.00000005960464,-5.00000007450581,0.));
#1070=CARTESIAN_POINT('Origin',(-7.00000010430813,0.,-4.));
#1071=CARTESIAN_POINT('',(-20.0000002682209,-5.00000007450581,-4.));
#1072=CARTESIAN_POINT('',(4.00000005960464,-5.00000007450581,-4.));
#1073=CARTESIAN_POINT('',(-20.0000002682209,-5.00000007450581,-4.));
#1074=CARTESIAN_POINT('',(-20.0000002682209,5.00000007450581,-4.));
#1075=CARTESIAN_POINT('',(-20.0000002682209,-5.00000007450581,-4.));
#1076=CARTESIAN_POINT('',(2.00000005960464,5.00000007450581,-4.));
#1077=CARTESIAN_POINT('',(-18.0000002682209,5.00000007450581,-4.));
#1078=CARTESIAN_POINT('',(1.7500000372529,5.25000009685755,-4.));
#1079=CARTESIAN_POINT('Origin',(3.50000005960464,3.50000007450581,0.));
#1080=CARTESIAN_POINT('',(2.00000005960464,5.00000007450581,0.));
#1081=CARTESIAN_POINT('',(1.7500000372529,5.25000009685755,0.));
#1082=CARTESIAN_POINT('',(2.00000005960464,5.00000007450581,0.));
#1083=CARTESIAN_POINT('Origin',(-41.5000005960464,0.999999925494192,10.4999998509884));
#1084=CARTESIAN_POINT('',(-40.0000005960465,4.99999992549419,11.9999998509884));
#1085=CARTESIAN_POINT('',(-38.2500004768372,5.00000007450581,13.7499999701977));
#1086=CARTESIAN_POINT('',(-40.0000005960465,0.999999925494192,11.9999998509884));
#1087=CARTESIAN_POINT('Origin',(-18.0000002682209,5.00000007450581,0.));
#1088=CARTESIAN_POINT('',(-26.0000002682209,4.99999992549419,1.99999970197679));
#1089=CARTESIAN_POINT('Origin',(-26.0000002682209,5.00000007450581,-4.00000029802321));
#1090=CARTESIAN_POINT('',(-40.0000005960464,4.99999992549419,1.99999970197678));
#1091=CARTESIAN_POINT('',(-21.0000002682209,4.99999992549419,1.99999970197679));
#1092=CARTESIAN_POINT('',(-34.7500005885959,5.00000007450581,-3.2500003054738));
#1093=CARTESIAN_POINT('',(-18.0000002682209,5.00000007450581,12.));
#1094=CARTESIAN_POINT('',(-43.0000005960465,4.99999992549419,11.9999998509884));
#1095=CARTESIAN_POINT('',(-18.0000002682209,5.00000007450581,0.));
#1096=CARTESIAN_POINT('',(-18.0000002682209,5.00000007450581,0.));
#1097=CARTESIAN_POINT('',(-18.0000002682209,5.00000007450581,0.));
#1098=CARTESIAN_POINT('Origin',(-41.5000005960464,0.999999925494191,3.49999970197679));
#1099=CARTESIAN_POINT('',(-40.0000005960464,0.99999992549419,1.99999970197678));
#1100=CARTESIAN_POINT('Origin',(-21.0000002682209,0.999999925494186,1.99999970197679));
#1101=CARTESIAN_POINT('',(-26.0000002682209,-2.00000007450581,1.99999970197679));
#1102=CARTESIAN_POINT('Origin',(-26.0000002682209,-2.00000007450581,-4.00000029802321));
#1103=CARTESIAN_POINT('Origin',(-19.5000002682209,0.999999925494195,5.99999985098841));
#1104=CARTESIAN_POINT('',(-18.0000002682209,-5.00000007450581,5.99999985098841));
#1105=CARTESIAN_POINT('',(-18.0000002682209,0.999999925494196,12.));
#1106=CARTESIAN_POINT('Origin',(-18.0000002682209,0.999999925494195,5.99999985098841));
#1107=CARTESIAN_POINT('',(-19.5000002682209,0.999999925494196,11.9999998509884));
#1108=CARTESIAN_POINT('',(-20.0000002682209,-5.00000007450581,5.99999985098841));
#1109=CARTESIAN_POINT('Origin',(-20.0000002682209,0.999999925494195,5.99999985098841));
#1110=CARTESIAN_POINT('',(-19.5000002682209,-5.00000007450581,5.99999985098841));
#1111=CARTESIAN_POINT('Origin',(4.00000005960464,-5.00000007450581,0.));
#1112=CARTESIAN_POINT('',(-18.0000002682209,-5.00000007450581,0.));
#1113=CARTESIAN_POINT('',(4.00000005960464,-5.00000007450581,0.));
#1114=CARTESIAN_POINT('',(-18.0000002682209,-5.00000007450581,0.));
#1115=CARTESIAN_POINT('',(-20.0000002682209,-5.00000007450581,0.));
#1116=CARTESIAN_POINT('Origin',(-20.0000002682209,-5.00000007450581,0.));
#1117=CARTESIAN_POINT('Origin',(-18.0000002682209,-5.00000007450581,0.));
#1118=CARTESIAN_POINT('',(-18.0000002682209,-2.5000000372529,0.));
#1119=CARTESIAN_POINT('',(-18.0000002682209,5.00000007450581,12.));
#1120=CARTESIAN_POINT('Origin',(-15.6909729281255,2.13182811029294,0.));
#1121=CARTESIAN_POINT('',(-15.6909729281255,2.13182811029294,0.));
#1122=CARTESIAN_POINT('',(-2.38806125833734E-16,3.9,0.));
#1123=CARTESIAN_POINT('',(-11.5185840810019,2.60200294943165,0.));
#1124=CARTESIAN_POINT('',(-15.6909729281255,2.13182811029294,-3.5));
#1125=CARTESIAN_POINT('',(-15.6909729281255,2.13182811029294,0.));
#1126=CARTESIAN_POINT('',(-2.08166817117217E-16,3.9,-3.5));
#1127=CARTESIAN_POINT('',(-2.38806125833734E-16,3.9,-3.5));
#1128=CARTESIAN_POINT('',(-2.38806125833734E-16,3.9,0.));
#1129=CARTESIAN_POINT('Origin',(-15.4502192086175,-0.00464974977091678,
0.));
#1130=CARTESIAN_POINT('',(-15.6751986271771,-2.14284624710801,0.));
#1131=CARTESIAN_POINT('Origin',(-15.4502192086175,-0.00464974977091678,
0.));
#1132=CARTESIAN_POINT('',(-15.6751986271771,-2.14284624710801,-3.5));
#1133=CARTESIAN_POINT('',(-15.6751986271771,-2.14284624710801,0.));
#1134=CARTESIAN_POINT('Origin',(-15.4502192086175,-0.00464974977091678,
-3.5));
#1135=CARTESIAN_POINT('Origin',(-0.440594173143922,-3.8750324869079,0.));
#1136=CARTESIAN_POINT('',(-3.89592418591247,-3.48215880776878,0.));
#1137=CARTESIAN_POINT('',(-15.6751986271771,-2.14284624710801,-3.5));
#1138=CARTESIAN_POINT('Origin',(0.,0.,0.));
#1139=CARTESIAN_POINT('Origin',(0.,0.,0.));
#1140=CARTESIAN_POINT('Origin',(0.,0.,-3.5));
#1141=CARTESIAN_POINT('Origin',(0.,0.,-3.5));
#1142=CARTESIAN_POINT('Origin',(-7.00000010430813,0.,0.));
#1143=CARTESIAN_POINT('Origin',(-25.4405945009695,0.999999925494188,3.12496728957469));
#1144=CARTESIAN_POINT('',(-40.6751989550026,4.49999992549419,4.85715352937459));
#1145=CARTESIAN_POINT('Origin',(-25.0000003278255,4.49999992549419,6.9999997764826));
#1146=CARTESIAN_POINT('Origin',(-43.0000005960465,0.999999925494193,11.9999998509884));
#1147=UNCERTAINTY_MEASURE_WITH_UNIT(LENGTH_MEASURE(0.01),#1151,
'DISTANCE_ACCURACY_VALUE',
'Maximum model space distance between geometric entities at asserted c
onnectivities');
#1148=UNCERTAINTY_MEASURE_WITH_UNIT(LENGTH_MEASURE(0.01),#1151,
'DISTANCE_ACCURACY_VALUE',
'Maximum model space distance between geometric entities at asserted c
onnectivities');
#1149=(
GEOMETRIC_REPRESENTATION_CONTEXT(3)
GLOBAL_UNCERTAINTY_ASSIGNED_CONTEXT((#1147))
GLOBAL_UNIT_ASSIGNED_CONTEXT((#1151,#1153,#1154))
REPRESENTATION_CONTEXT('','3D')
);
#1150=(
GEOMETRIC_REPRESENTATION_CONTEXT(3)
GLOBAL_UNCERTAINTY_ASSIGNED_CONTEXT((#1148))
GLOBAL_UNIT_ASSIGNED_CONTEXT((#1151,#1153,#1154))
REPRESENTATION_CONTEXT('','3D')
);
#1151=(
LENGTH_UNIT()
NAMED_UNIT(*)
SI_UNIT(.MILLI.,.METRE.)
);
#1152=(
LENGTH_UNIT()
NAMED_UNIT(*)
SI_UNIT($,.METRE.)
);
#1153=(
NAMED_UNIT(*)
PLANE_ANGLE_UNIT()
SI_UNIT($,.RADIAN.)
);
#1154=(
NAMED_UNIT(*)
SI_UNIT($,.STERADIAN.)
SOLID_ANGLE_UNIT()
);
#1155=SHAPE_DEFINITION_REPRESENTATION(#1156,#1157);
#1156=PRODUCT_DEFINITION_SHAPE('',$,#1159);
#1157=SHAPE_REPRESENTATION('',(#705),#1149);
#1158=PRODUCT_DEFINITION_CONTEXT('part definition',#1163,'design');
#1159=PRODUCT_DEFINITION('KNEE DESIGN UPDATED','KNEE DESIGN UPDATED v3',
#1160,#1158);
#1160=PRODUCT_DEFINITION_FORMATION('',$,#1165);
#1161=PRODUCT_RELATED_PRODUCT_CATEGORY('KNEE DESIGN UPDATED v3',
'KNEE DESIGN UPDATED v3',(#1165));
#1162=APPLICATION_PROTOCOL_DEFINITION('international standard',
'automotive_design',2009,#1163);
#1163=APPLICATION_CONTEXT(
'Core Data for Automotive Mechanical Design Process');
#1164=PRODUCT_CONTEXT('part definition',#1163,'mechanical');
#1165=PRODUCT('KNEE DESIGN UPDATED','KNEE DESIGN UPDATED v3',$,(#1164));
#1166=PRESENTATION_STYLE_ASSIGNMENT((#1167));
#1167=SURFACE_STYLE_USAGE(.BOTH.,#1168);
#1168=SURFACE_SIDE_STYLE('',(#1169));
#1169=SURFACE_STYLE_FILL_AREA(#1170);
#1170=FILL_AREA_STYLE('Steel - Satin',(#1171));
#1171=FILL_AREA_STYLE_COLOUR('Steel - Satin',#1172);
#1172=COLOUR_RGB('Steel - Satin',0.627450980392157,0.627450980392157,0.627450980392157);
ENDSEC;
END-ISO-10303-21;
